<?xml version="1.0" encoding="utf-8"?>
<!-- Generator: Adobe Illustrator 25.4.1, SVG Export Plug-In . SVG Version: 6.00 Build 0)  -->
<svg version="1.1" id="Layer_1" xmlns="http://www.w3.org/2000/svg" xmlns:xlink="http://www.w3.org/1999/xlink" x="0px" y="0px"
	 viewBox="0 0 512 512" style="enable-background:new 0 0 512 512;" xml:space="preserve">
<style type="text/css">
	.st0{fill:#FF5757;}
	.st1{clip-path:url(#SVGID_00000075868086639996054980000010811974445450420648_);}
	.st2{fill:#F4F4E6;}
	.st3{clip-path:url(#SVGID_00000124873589637165563080000004793341696755208107_);}
	.st4{fill:#CFDFE8;}
	.st5{clip-path:url(#SVGID_00000162346294641059657930000005610294518544038020_);}
	.st6{fill:#F9BB4B;}
	.st7{clip-path:url(#SVGID_00000000188311637558404560000005239279460873744519_);}
	.st8{fill:#EB8CB3;}
	.st9{fill:#394D5C;}
	.st10{fill:#32B1CC;}
	.st11{fill:#E33E5C;}
	.st12{fill:#195C85;}
	.st13{fill:#A3B7CC;}
	.st14{fill:#8BB7F0;}
	.st15{clip-path:url(#SVGID_00000134216695533596157630000017905992286067910025_);}
	.st16{fill:#4E7AB5;}
	.st17{clip-path:url(#SVGID_00000140711569693505177640000007439284704586423976_);}
	.st18{clip-path:url(#SVGID_00000041983603371561052060000016257064783263523994_);}
	.st19{clip-path:url(#SVGID_00000134236653186161191260000003025960649891348101_);}
	.st20{fill:#CFD8DC;}
	.st21{clip-path:url(#SVGID_00000042004106718003758040000018406286805888336025_);}
	.st22{fill:#00BCD4;}
</style>
<path class="st0" d="M256,0C114.6,0,0,114.6,0,256s114.6,256,256,256s256-114.6,256-256S397.4,0,256,0z"/>
<g>
	<defs>
		<rect id="SVGID_1_" x="152.4" y="23.5" width="308" height="409.7"/>
	</defs>
	<clipPath id="SVGID_00000079466866620382495160000017030259249700142992_">
		<use xlink:href="#SVGID_1_"  style="overflow:visible;"/>
	</clipPath>
	<g style="clip-path:url(#SVGID_00000079466866620382495160000017030259249700142992_);">
		<path class="st2" d="M431,433.2c-16.1,0-29.2-12.7-29.2-28.3v-28.3h-248V94.1h73V23.5h233.5V405
			C460.2,420.6,447.1,433.2,431,433.2"/>
	</g>
</g>
<g>
	<defs>
		<rect id="SVGID_00000170956927661245901080000000213575677120810888_" x="152.4" y="23.5" width="74.4" height="71.5"/>
	</defs>
	<clipPath id="SVGID_00000035526579287494749000000017624957481675056523_">
		<use xlink:href="#SVGID_00000170956927661245901080000000213575677120810888_"  style="overflow:visible;"/>
	</clipPath>
	<g style="clip-path:url(#SVGID_00000035526579287494749000000017624957481675056523_);">
		<path class="st4" d="M226.7,94.1h-73l73-70.6V94.1z"/>
	</g>
</g>
<g>
	<defs>
		<rect id="SVGID_00000182499275943958345490000014671221521963281042_" x="255.1" y="51.8" width="234.4" height="113.9"/>
	</defs>
	<clipPath id="SVGID_00000030463026140430856160000014872558132195987641_">
		<use xlink:href="#SVGID_00000182499275943958345490000014671221521963281042_"  style="overflow:visible;"/>
	</clipPath>
	<g style="clip-path:url(#SVGID_00000030463026140430856160000014872558132195987641_);">
		<path class="st6" d="M489.4,164.8H255.9v-113h233.5V164.8"/>
	</g>
</g>
<g>
	<defs>
		<rect id="SVGID_00000133503431115754622470000017766412375137817770_" x="124.5" y="376.1" width="307.6" height="57.2"/>
	</defs>
	<clipPath id="SVGID_00000040560683642468258490000004055840299885467799_">
		<use xlink:href="#SVGID_00000133503431115754622470000017766412375137817770_"  style="overflow:visible;"/>
	</clipPath>
	<g style="clip-path:url(#SVGID_00000040560683642468258490000004055840299885467799_);">
		<path class="st4" d="M153.8,433.2c-16.1,0-29.2-12.7-29.2-28.3v-28.3h277.2V405c0,15.6,13.1,28.3,29.2,28.3H153.8"/>
	</g>
</g>
<path class="st8" d="M190.3,129.5h-14.6v-14.1h14.6V129.5"/>
<path class="st8" d="M219.4,150.7h-14.6v-14.1h14.6V150.7"/>
<path class="st9" d="M328.9,143.6h-43.8c-4,0-7.3-3.2-7.3-7.1V80c0-3.9,3.3-7.1,7.3-7.1h51.1v14.1h-43.8v42.4h29.2v-14.1H307v-14.1
	h21.9c4,0,7.3,3.2,7.3,7.1v28.3C336.2,140.4,332.9,143.6,328.9,143.6"/>
<path class="st9" d="M365.4,143.6h-14.6V73h14.6V143.6"/>
<path class="st9" d="M438.3,87.1h-58.4V73h58.4V87.1"/>
<path class="st9" d="M416.4,143.6h-14.6V80h14.6V143.6"/>
<path class="st10" d="M431,348.5H183V193h248V348.5"/>
<path class="st11" d="M385.1,287l-25.6-24.8l-33.9,16.4l6.6,12.6l16.7-8.1c-5.5,17.4-22.2,30-41.9,30c-15,0-29.8-7.1-37.8-18.2
	l-12,8.1c10.6,14.7,30.1,24.2,49.8,24.2c26.8,0,49.4-17.6,56.2-41.5l11.6,11.2L385.1,287"/>
<path class="st11" d="M281.8,250.3l-16.7,8.1c5.5-17.4,22.2-30,41.9-30c17.1,0,30.4,6.3,37.5,17.8l12.5-7.3
	c-9.9-15.9-27.6-24.6-50-24.6c-26.8,0-49.4,17.6-56.2,41.5l-11.6-11.2l-10.3,10l25.6,24.8l33.9-16.4L281.8,250.3"/>
<path class="st12" d="M219.4,228.4h-14.6v-14.1h14.6V228.4"/>
<path class="st12" d="M409.1,327.3h-29.2v-14.1h29.2V327.3"/>
<path class="st13" d="M185,266.9h-74.6c-30.5,0-55.4-24.1-55.4-54.7v-20.8h11.3v20.8c0,24.1,19.2,43.8,44.1,43.8H185V266.9z"/>
<path class="st13" d="M55.1,184.8h11.3v120.4H55.1V184.8z"/>
<path class="st14" d="M60.7,162.9c-1.5,0-3,0.1-4.4,0.4c-1.5,0.3-2.9,0.7-4.2,1.2c-1.4,0.6-2.7,1.2-3.9,2c-1.2,0.8-2.4,1.7-3.4,2.7
	c-1,1-2,2.1-2.8,3.3c-0.8,1.2-1.5,2.5-2.1,3.8c-0.6,1.3-1,2.7-1.3,4.1c-0.3,1.4-0.4,2.8-0.4,4.3c0,1.4,0.1,2.9,0.4,4.3
	c0.3,1.4,0.7,2.8,1.3,4.1c0.6,1.3,1.3,2.6,2.1,3.8c0.8,1.2,1.8,2.3,2.8,3.3c1.1,1,2.2,1.9,3.4,2.7c1.2,0.8,2.5,1.5,3.9,2
	c1.4,0.6,2.8,1,4.2,1.3c1.5,0.3,2.9,0.4,4.4,0.4c1.5,0,3-0.1,4.4-0.4c1.5-0.3,2.9-0.7,4.2-1.3c1.4-0.5,2.7-1.2,3.9-2
	c1.2-0.8,2.4-1.7,3.4-2.7c1-1,2-2.1,2.8-3.3c0.8-1.2,1.5-2.5,2.1-3.8c0.6-1.3,1-2.7,1.3-4.1c0.3-1.4,0.4-2.8,0.4-4.3
	c0-1.4-0.1-2.9-0.4-4.3c-0.3-1.4-0.7-2.8-1.3-4.1c-0.6-1.3-1.3-2.6-2.1-3.8c-0.8-1.2-1.8-2.3-2.8-3.3c-1.1-1-2.2-1.9-3.4-2.7
	c-1.2-0.8-2.5-1.5-3.9-2c-1.4-0.5-2.8-1-4.2-1.2C63.7,163,62.2,162.9,60.7,162.9z"/>
<g>
	<defs>
		<rect id="SVGID_00000176751473194786582220000009730734335562391682_" x="32.5" y="157.4" width="57.4" height="55.8"/>
	</defs>
	<clipPath id="SVGID_00000085970627199408644530000003037062970862972569_">
		<use xlink:href="#SVGID_00000176751473194786582220000009730734335562391682_"  style="overflow:visible;"/>
	</clipPath>
	<g style="clip-path:url(#SVGID_00000085970627199408644530000003037062970862972569_);">
		<path class="st16" d="M60.7,168.3c9,0,17,7.7,17,16.4s-7.9,16.4-17,16.4c-9,0-17-7.7-17-16.4S51.7,168.3,60.7,168.3 M60.7,157.4
			c-15.8,0-28.3,12-28.3,27.4c0,15.3,12.4,27.4,28.3,27.4c15.8,0,28.3-12,28.3-27.4C89,169.4,76.5,157.4,60.7,157.4z"/>
	</g>
</g>
<path class="st14" d="M60.7,283.3c-1.5,0-3,0.1-4.4,0.4c-1.5,0.3-2.9,0.7-4.2,1.2c-1.4,0.6-2.7,1.2-3.9,2c-1.2,0.8-2.4,1.7-3.4,2.7
	c-1,1-2,2.1-2.8,3.3c-0.8,1.2-1.5,2.5-2.1,3.8c-0.6,1.3-1,2.7-1.3,4.1c-0.3,1.4-0.4,2.8-0.4,4.3c0,1.4,0.1,2.9,0.4,4.3
	c0.3,1.4,0.7,2.8,1.3,4.1c0.6,1.3,1.3,2.6,2.1,3.8c0.8,1.2,1.8,2.3,2.8,3.3c1.1,1,2.2,1.9,3.4,2.7c1.2,0.8,2.5,1.5,3.9,2
	c1.4,0.6,2.8,1,4.2,1.2c1.5,0.3,2.9,0.4,4.4,0.4c1.5,0,3-0.1,4.4-0.4c1.5-0.3,2.9-0.7,4.2-1.2c1.4-0.5,2.7-1.2,3.9-2
	c1.2-0.8,2.4-1.7,3.4-2.7c1-1,2-2.1,2.8-3.3c0.8-1.2,1.5-2.5,2.1-3.8c0.6-1.3,1-2.7,1.3-4.1c0.3-1.4,0.4-2.8,0.4-4.3
	c0-1.4-0.1-2.9-0.4-4.3c-0.3-1.4-0.7-2.8-1.3-4.1c-0.6-1.3-1.3-2.6-2.1-3.8c-0.8-1.2-1.8-2.3-2.8-3.3c-1.1-1-2.2-1.9-3.4-2.7
	c-1.2-0.8-2.5-1.5-3.9-2c-1.4-0.5-2.8-1-4.2-1.2C63.7,283.4,62.2,283.3,60.7,283.3z"/>
<g>
	<defs>
		<rect id="SVGID_00000061458003494762331900000015709451936520118194_" x="32.5" y="276.6" width="57.4" height="55.9"/>
	</defs>
	<clipPath id="SVGID_00000160179962796748481730000006666720558338901182_">
		<use xlink:href="#SVGID_00000061458003494762331900000015709451936520118194_"  style="overflow:visible;"/>
	</clipPath>
	<g style="clip-path:url(#SVGID_00000160179962796748481730000006666720558338901182_);">
		<path class="st16" d="M60.7,288.8c9,0,17,7.7,17,16.4s-7.9,16.4-17,16.4c-9,0-17-7.7-17-16.4S51.7,288.8,60.7,288.8 M60.7,277.8
			c-15.8,0-28.3,12-28.3,27.4c0,15.3,12.4,27.4,28.3,27.4c15.8,0,28.3-12,28.3-27.4C89,289.9,76.5,277.8,60.7,277.8z"/>
	</g>
</g>
<path class="st14" d="M185,239.5c-1.5,0-3,0.1-4.4,0.4c-1.5,0.3-2.9,0.7-4.2,1.2c-1.4,0.6-2.7,1.2-3.9,2c-1.2,0.8-2.4,1.7-3.4,2.7
	c-1,1-2,2.1-2.8,3.3c-0.8,1.2-1.5,2.5-2.1,3.8c-0.6,1.3-1,2.7-1.3,4.1c-0.3,1.4-0.4,2.8-0.4,4.3c0,1.4,0.1,2.9,0.4,4.3
	c0.3,1.4,0.7,2.8,1.3,4.1c0.6,1.3,1.3,2.6,2.1,3.8c0.8,1.2,1.8,2.3,2.8,3.3c1.1,1,2.2,1.9,3.4,2.7c1.2,0.8,2.5,1.5,3.9,2
	c1.4,0.6,2.8,1,4.2,1.3c1.5,0.3,2.9,0.4,4.4,0.4c1.5,0,3-0.1,4.4-0.4c1.5-0.3,2.9-0.7,4.2-1.3c1.4-0.5,2.7-1.2,3.9-2
	c1.2-0.8,2.4-1.7,3.4-2.7c1-1,2-2.1,2.8-3.3c0.8-1.2,1.5-2.5,2.1-3.8c0.6-1.3,1-2.7,1.3-4.1c0.3-1.4,0.4-2.8,0.4-4.3
	c0-1.4-0.1-2.9-0.4-4.3c-0.3-1.4-0.7-2.8-1.3-4.1c-0.6-1.3-1.3-2.6-2.1-3.8s-1.8-2.3-2.8-3.3c-1.1-1-2.2-1.9-3.4-2.7
	c-1.2-0.8-2.5-1.5-3.9-2c-1.4-0.5-2.8-1-4.2-1.2C188,239.6,186.5,239.5,185,239.5z"/>
<g>
	<defs>
		<rect id="SVGID_00000129177915357365150490000017845051550266439855_" x="155.4" y="233.4" width="57.9" height="56.2"/>
	</defs>
	<clipPath id="SVGID_00000075869624540534958770000009325686301048215727_">
		<use xlink:href="#SVGID_00000129177915357365150490000017845051550266439855_"  style="overflow:visible;"/>
	</clipPath>
	<g style="clip-path:url(#SVGID_00000075869624540534958770000009325686301048215727_);">
		<path class="st16" d="M185,245c9,0,17,7.7,17,16.4s-7.9,16.4-17,16.4c-9,0-17-7.7-17-16.4S176,245,185,245 M185,234
			c-15.8,0-28.3,12-28.3,27.4c0,15.3,12.4,27.4,28.3,27.4c15.8,0,28.3-12,28.3-27.4C213.3,246.1,200.8,234,185,234z"/>
	</g>
</g>
<g>
	<defs>
		<rect id="SVGID_00000075131166639442033080000000025612523814691761_" x="135.7" y="459.7" width="228.8" height="13"/>
	</defs>
	<clipPath id="SVGID_00000016062011589368336570000013983411350483031196_">
		<use xlink:href="#SVGID_00000075131166639442033080000000025612523814691761_"  style="overflow:visible;"/>
	</clipPath>
	<g style="clip-path:url(#SVGID_00000016062011589368336570000013983411350483031196_);">
		<path class="st20" d="M135.7,460.8h228.8v11.1H135.7V460.8z"/>
	</g>
</g>
<g>
	<defs>
		<rect id="SVGID_00000044858147549006799660000003325486520045006256_" x="226.8" y="444.2" width="47.6" height="44.3"/>
	</defs>
	<clipPath id="SVGID_00000101805740456242011110000015038557374240849552_">
		<use xlink:href="#SVGID_00000044858147549006799660000003325486520045006256_"  style="overflow:visible;"/>
	</clipPath>
	<g style="clip-path:url(#SVGID_00000101805740456242011110000015038557374240849552_);">
		<path class="st22" d="M273,466.3c0,12.2-10.3,22.2-22.9,22.2c-12.6,0-22.9-10-22.9-22.2c0-12.2,10.3-22.2,22.9-22.2
			C262.7,444.2,273,454.2,273,466.3z"/>
	</g>
</g>
</svg>
