<svg xmlns="http://www.w3.org/2000/svg" xmlns:xlink="http://www.w3.org/1999/xlink" viewBox="0 0 551 551"><defs><style>.cls-1{isolation:isolate;}.cls-2{fill:url(#radial-gradient);}.cls-14,.cls-22,.cls-3,.cls-31,.cls-37{fill-rule:evenodd;mix-blend-mode:multiply;}.cls-3{fill:url(#radial-gradient-2);}.cls-4{fill:url(#radial-gradient-3);}.cls-5{fill:#010101;}.cls-11,.cls-13,.cls-6,.cls-9{mix-blend-mode:screen;}.cls-6{fill:url(#linear-gradient);}.cls-7{fill:url(#radial-gradient-4);}.cls-8{fill:#ee2d30;}.cls-9{fill:url(#linear-gradient-2);}.cls-10{fill:url(#radial-gradient-5);}.cls-11{fill:url(#linear-gradient-3);}.cls-12{fill:url(#radial-gradient-6);}.cls-13{fill:url(#linear-gradient-4);}.cls-14{fill:url(#radial-gradient-7);}.cls-15{fill:url(#linear-gradient-5);}.cls-16{fill:url(#linear-gradient-6);}.cls-17{fill:url(#linear-gradient-7);}.cls-18{fill:url(#linear-gradient-8);}.cls-19{fill:url(#radial-gradient-8);}.cls-20{fill:url(#linear-gradient-9);}.cls-21{fill:url(#linear-gradient-10);}.cls-22{fill:url(#radial-gradient-9);}.cls-23{fill:url(#linear-gradient-11);}.cls-24{fill:url(#linear-gradient-12);}.cls-25{fill:url(#linear-gradient-13);}.cls-26{fill:url(#linear-gradient-14);}.cls-27{fill:url(#linear-gradient-15);}.cls-28{fill:url(#radial-gradient-10);}.cls-29{fill:url(#linear-gradient-16);}.cls-30{fill:url(#linear-gradient-17);}.cls-31{fill:url(#radial-gradient-11);}.cls-32{fill:url(#linear-gradient-18);}.cls-33{fill:url(#linear-gradient-19);}.cls-34{fill:url(#radial-gradient-12);}.cls-35{fill:url(#linear-gradient-20);}.cls-36{fill:url(#linear-gradient-21);}.cls-37{fill:url(#radial-gradient-13);}.cls-38{fill:url(#linear-gradient-22);}.cls-39{fill:url(#linear-gradient-23);}.cls-40{fill:url(#radial-gradient-14);}.cls-41{fill:url(#linear-gradient-24);}.cls-42{fill:url(#linear-gradient-25);}</style><radialGradient id="radial-gradient" cx="216.83" cy="270.4" r="460.45" gradientUnits="userSpaceOnUse"><stop offset="0.07" stop-color="#d6d8d8"/><stop offset="0.08" stop-color="#d4d6d6"/><stop offset="0.16" stop-color="#a3a5a5"/><stop offset="0.25" stop-color="#787979"/><stop offset="0.34" stop-color="#535454"/><stop offset="0.44" stop-color="#353636"/><stop offset="0.54" stop-color="#1e1f1f"/><stop offset="0.65" stop-color="#0e0e0e"/><stop offset="0.76" stop-color="#040404"/><stop offset="0.92" stop-color="#010101"/></radialGradient><radialGradient id="radial-gradient-2" cx="295.93" cy="1599.23" r="297.52" gradientTransform="translate(42.11 191.53) scale(0.8 0.14)" gradientUnits="userSpaceOnUse"><stop offset="0.13" stop-color="#010101"/><stop offset="0.19" stop-color="#202020"/><stop offset="0.32" stop-color="#5a5a5a"/><stop offset="0.44" stop-color="#8d8d8d"/><stop offset="0.57" stop-color="#b6b6b6"/><stop offset="0.68" stop-color="#d6d6d6"/><stop offset="0.8" stop-color="#ededed"/><stop offset="0.91" stop-color="#fafafa"/><stop offset="1" stop-color="#fff"/></radialGradient><radialGradient id="radial-gradient-3" cx="-94.13" cy="375.14" r="105" gradientTransform="translate(-132.22 -6.01) rotate(-56.2)" gradientUnits="userSpaceOnUse"><stop offset="0" stop-color="#fff"/><stop offset="0.22" stop-color="#fafafa"/><stop offset="0.48" stop-color="#ededed"/><stop offset="0.74" stop-color="#d6d7d7"/><stop offset="0.87" stop-color="#c9cacb"/></radialGradient><linearGradient id="linear-gradient" x1="-94.2" y1="377.19" x2="-112.88" y2="326.15" gradientTransform="translate(-132.22 -6.01) rotate(-56.2)" gradientUnits="userSpaceOnUse"><stop offset="0" stop-color="#fff"/><stop offset="0.12" stop-color="#e1e1e1"/><stop offset="0.39" stop-color="#959595"/><stop offset="0.78" stop-color="#1d1d1d"/><stop offset="0.87" stop-color="#010101"/></linearGradient><radialGradient id="radial-gradient-4" cx="453.23" cy="-43.14" r="105" gradientTransform="translate(106.67 3.25) rotate(48.11)" xlink:href="#radial-gradient-3"/><linearGradient id="linear-gradient-2" x1="453.17" y1="-41.09" x2="434.49" y2="-92.13" gradientTransform="translate(106.67 3.25) rotate(48.11)" xlink:href="#linear-gradient"/><radialGradient id="radial-gradient-5" cx="204.16" cy="257.72" r="105" gradientTransform="translate(-9.74 1.95) rotate(-8.59)" xlink:href="#radial-gradient-3"/><linearGradient id="linear-gradient-3" x1="204.1" y1="259.77" x2="185.42" y2="208.73" gradientTransform="translate(-9.74 1.95) rotate(-8.59)" xlink:href="#linear-gradient"/><radialGradient id="radial-gradient-6" cx="341.68" cy="156.57" r="105.01" gradientTransform="translate(74.26 -26.87) rotate(18.12)" xlink:href="#radial-gradient-3"/><linearGradient id="linear-gradient-4" x1="341.61" y1="158.62" x2="322.93" y2="107.58" gradientTransform="translate(74.26 -26.87) rotate(18.12)" xlink:href="#linear-gradient"/><radialGradient id="radial-gradient-7" cx="370.34" cy="-227.28" r="67.07" gradientTransform="matrix(1, -0.09, 0.09, 0.97, 51.35, 641.31)" gradientUnits="userSpaceOnUse"><stop offset="0.36" stop-color="#010101"/><stop offset="0.5" stop-color="#4b4b4b"/><stop offset="0.63" stop-color="#8b8b8b"/><stop offset="0.75" stop-color="#bdbdbd"/><stop offset="0.86" stop-color="#e1e1e1"/><stop offset="0.94" stop-color="#f7f7f7"/><stop offset="1" stop-color="#fff"/></radialGradient><linearGradient id="linear-gradient-5" x1="478.83" y1="351.34" x2="435.07" y2="328.94" gradientTransform="translate(-17.07 -2.45) rotate(7.01)" gradientUnits="userSpaceOnUse"><stop offset="0.15" stop-color="#010101"/><stop offset="0.23" stop-color="#070707"/><stop offset="0.33" stop-color="#171717"/><stop offset="0.45" stop-color="#323232"/><stop offset="0.58" stop-color="#575757"/><stop offset="0.72" stop-color="#878787"/><stop offset="0.86" stop-color="silver"/><stop offset="1" stop-color="#fff"/></linearGradient><linearGradient id="linear-gradient-6" x1="461.39" y1="363.54" x2="421.38" y2="334.73" xlink:href="#linear-gradient-5"/><linearGradient id="linear-gradient-7" x1="444.93" y1="311.91" x2="396.39" y2="273.83" xlink:href="#linear-gradient-5"/><linearGradient id="linear-gradient-8" x1="416.02" y1="323.22" x2="510.67" y2="323.22" xlink:href="#linear-gradient-5"/><radialGradient id="radial-gradient-8" cx="335.28" cy="365.2" r="101.26" gradientTransform="translate(-8.49 0.74) rotate(-5.37)" gradientUnits="userSpaceOnUse"><stop offset="0.1" stop-color="#fff"/><stop offset="0.16" stop-color="#f5f5f5"/><stop offset="0.27" stop-color="#dadada"/><stop offset="0.42" stop-color="#adadad"/><stop offset="0.59" stop-color="#707070"/><stop offset="0.78" stop-color="#232323"/><stop offset="0.85" stop-color="#010101"/></radialGradient><linearGradient id="linear-gradient-9" x1="426.94" y1="377.32" x2="509.95" y2="274.75" xlink:href="#linear-gradient-5"/><linearGradient id="linear-gradient-10" x1="433.27" y1="267.5" x2="458.85" y2="332.75" xlink:href="#linear-gradient-5"/><radialGradient id="radial-gradient-9" cx="178.36" cy="-286.73" r="67.07" xlink:href="#radial-gradient-7"/><linearGradient id="linear-gradient-11" x1="216.35" y1="382.45" x2="164.68" y2="369.61" gradientTransform="translate(-8.49 0.74) rotate(-5.37)" xlink:href="#linear-gradient-5"/><linearGradient id="linear-gradient-12" x1="233.71" y1="350.15" x2="190.11" y2="316.4" gradientTransform="translate(-8.49 0.74) rotate(-5.37)" xlink:href="#linear-gradient-5"/><linearGradient id="linear-gradient-13" x1="199.66" y1="395.91" x2="162.77" y2="377.99" gradientTransform="translate(-8.49 0.74) rotate(-5.37)" xlink:href="#linear-gradient-5"/><linearGradient id="linear-gradient-14" x1="191.32" y1="325.9" x2="154.43" y2="310.22" gradientTransform="translate(-8.49 0.74) rotate(-5.37)" xlink:href="#linear-gradient-5"/><linearGradient id="linear-gradient-15" x1="166.54" y1="361.25" x2="121.6" y2="343.18" gradientTransform="translate(-8.49 0.74) rotate(-5.37)" xlink:href="#linear-gradient-5"/><radialGradient id="radial-gradient-10" cx="174.92" cy="339.07" r="73.6" gradientTransform="translate(-8.49 0.74) rotate(-5.37)" gradientUnits="userSpaceOnUse"><stop offset="0.05" stop-color="#fff"/><stop offset="0.22" stop-color="#d8d8d8"/><stop offset="0.59" stop-color="#737373"/><stop offset="1" stop-color="#010101"/></radialGradient><linearGradient id="linear-gradient-16" x1="179.23" y1="395.47" x2="265.11" y2="294.96" gradientTransform="translate(-8.49 0.74) rotate(-5.37)" xlink:href="#linear-gradient-5"/><linearGradient id="linear-gradient-17" x1="166.48" y1="300.1" x2="204.55" y2="370.07" gradientTransform="translate(-8.49 0.74) rotate(-5.37)" xlink:href="#linear-gradient-5"/><radialGradient id="radial-gradient-11" cx="-161.08" cy="-258.48" r="67.07" gradientTransform="matrix(0.59, -0.81, 0.78, 0.57, 428.75, 398.01)" xlink:href="#radial-gradient-7"/><linearGradient id="linear-gradient-18" x1="-3.43" y1="465.8" x2="-80.69" y2="368.24" gradientTransform="translate(-112.3 34.74) rotate(-35.15)" gradientUnits="userSpaceOnUse"><stop offset="0" stop-color="#411313"/><stop offset="0.37" stop-color="#841618"/><stop offset="0.76" stop-color="#ee2c24"/><stop offset="1" stop-color="#fff"/></linearGradient><linearGradient id="linear-gradient-19" x1="24.19" y1="420.66" x2="-59.83" y2="382.43" xlink:href="#linear-gradient-18"/><radialGradient id="radial-gradient-12" cx="-174.44" cy="363.16" r="92.01" gradientTransform="translate(-89.68 17.82) rotate(-53.78)" gradientUnits="userSpaceOnUse"><stop offset="0.12" stop-color="#fff"/><stop offset="0.39" stop-color="#ee2c24"/><stop offset="0.78" stop-color="#841618"/><stop offset="1" stop-color="#411313"/></radialGradient><linearGradient id="linear-gradient-20" x1="-25.68" y1="518.86" x2="53.67" y2="379.11" xlink:href="#linear-gradient-18"/><linearGradient id="linear-gradient-21" x1="-22.65" y1="381.96" x2="20.63" y2="435.98" xlink:href="#linear-gradient-18"/><radialGradient id="radial-gradient-13" cx="304.09" cy="-346.06" r="64.55" gradientTransform="matrix(1, 0.05, -0.05, 0.97, -30.81, 641.56)" xlink:href="#radial-gradient-7"/><linearGradient id="linear-gradient-22" x1="255.54" y1="367.38" x2="175.58" y2="364.84" gradientTransform="translate(6.58 -1.83) rotate(-13.72)" xlink:href="#linear-gradient-18"/><linearGradient id="linear-gradient-23" x1="210.4" y1="403.19" x2="134.24" y2="401.07" gradientTransform="translate(6.58 -1.83) rotate(-13.72)" xlink:href="#linear-gradient-18"/><radialGradient id="radial-gradient-14" cx="295.69" cy="256.36" r="107.57" gradientTransform="translate(2.93 -1.6) rotate(2.99)" gradientUnits="userSpaceOnUse"><stop offset="0.2" stop-color="#fff"/><stop offset="0.52" stop-color="#ee2c24"/><stop offset="0.82" stop-color="#841618"/><stop offset="1" stop-color="#411313"/></radialGradient><linearGradient id="linear-gradient-24" x1="160.88" y1="481.9" x2="284.14" y2="337.98" gradientTransform="translate(6.58 -1.83) rotate(-13.72)" xlink:href="#linear-gradient-18"/><linearGradient id="linear-gradient-25" x1="220.41" y1="345.49" x2="244.84" y2="403.24" gradientTransform="translate(6.58 -1.83) rotate(-13.72)" xlink:href="#linear-gradient-18"/></defs><g class="cls-1"><g id="Layer_2" data-name="Layer 2"><g id="Layer_1-2" data-name="Layer 1"><rect class="cls-2" width="551" height="551" rx="275.5"/><path class="cls-3" d="M536.4,421c0,25.6-115.48,46.37-257.94,46.37S20.5,446.61,20.5,421s115.49-46.35,258-46.35S536.4,395.42,536.4,421Z"/><path class="cls-4" d="M222.42,281.12a8.74,8.74,0,0,1,2.4,12.13l-62.54,93.42a8.74,8.74,0,0,1-12.13,2.4L11.84,296.47a8.74,8.74,0,0,1-2.41-12.13L72,190.93a8.74,8.74,0,0,1,12.13-2.41Z"/><path class="cls-5" d="M116.25,267.84a16.12,16.12,0,0,0-4.37-4.34c-7.69-5.15-18.26-2.86-23.6,5.11s-3.42,18.62,4.27,23.77a16.29,16.29,0,0,0,5.66,2.38c-4.87,7.9-2.88,18.14,4.63,23.17,7.7,5.16,18.26,2.87,23.6-5.1a17.55,17.55,0,0,0,1.83-16.19,88.29,88.29,0,0,1,6.87,7.59c4.77,6.45,3.84,11.25,3.84,11.25l11.21-16.76s-4.36,2.4-11.49.06c-1.79-.6-6.08-2.29-9.39-3.62a17.52,17.52,0,0,0,14.22-7.86c5.34-8,3.43-18.62-4.27-23.77C131.83,258.56,121.74,260.53,116.25,267.84Z"/><path class="cls-5" d="M41.15,286.21l-3.51,5.25-.7-.47a5.89,5.89,0,0,0,.57-1.28c.11-.37.09-.6,0-.7l-.23-.13-.26-.1-3.81-1-3,4.43c.34.47.65.87.92,1.2l.75.92c.23.26.43.47.58.62a3.68,3.68,0,0,0,.4.32c.27.18.59.13,1-.15A5,5,0,0,0,34.93,294l.69.47-3.18,4.75-.69-.46q.12-.25.27-.66a2.36,2.36,0,0,0,.13-.74,3.07,3.07,0,0,0-.18-.92,4.57,4.57,0,0,0-.55-.91c-1.32-1.8-2.81-3.82-4.47-6l-4.44-5.94.48-.71,14.8,3.82a3,3,0,0,0,.83.11,2.65,2.65,0,0,0,.77-.16,2.76,2.76,0,0,0,.59-.38,3.43,3.43,0,0,0,.47-.48Zm-9.09,1.28-6.67-1.7,4.13,5.49Z"/><path class="cls-5" d="M47.4,295.16A4.15,4.15,0,0,0,46.28,294a4.49,4.49,0,1,0-3.53,8.08A4.32,4.32,0,1,0,50,306.77a4.52,4.52,0,0,0,.48-4.18,24.27,24.27,0,0,1,1.77,2,4,4,0,0,1,1,2.91l2.9-4.33a3.92,3.92,0,0,1-3,0c-.46-.15-1.57-.59-2.42-.93a4.53,4.53,0,0,0,3.67-2,4.33,4.33,0,1,0-7.05-5Z"/><path class="cls-5" d="M196,290.81l3.52-5.24.69.46a5.32,5.32,0,0,0-.57,1.29c-.11.37-.09.6,0,.69a1.57,1.57,0,0,0,.23.13,1.72,1.72,0,0,0,.26.1l3.82,1,3-4.42c-.35-.47-.66-.88-.93-1.21l-.75-.91c-.23-.26-.42-.47-.58-.62a3,3,0,0,0-.4-.33c-.26-.17-.59-.13-1,.15a4.74,4.74,0,0,0-1.09,1.1l-.7-.47,3.18-4.75.7.46a4.81,4.81,0,0,0-.28.65,2.46,2.46,0,0,0-.13.74,2.78,2.78,0,0,0,.19.92,4.07,4.07,0,0,0,.54.92c1.32,1.8,2.81,3.82,4.47,6l4.44,5.93-.48.71-14.8-3.82a2.94,2.94,0,0,0-.82-.11,2.39,2.39,0,0,0-.78.17,2.15,2.15,0,0,0-.59.38,2.32,2.32,0,0,0-.47.48Zm9.09-1.27,6.67,1.69-4.13-5.49Z"/><path class="cls-5" d="M189.7,281.87a4.26,4.26,0,0,0,1.12,1.12,4.49,4.49,0,1,0,3.53-8.07,4.33,4.33,0,1,0-7.28-4.67,4.53,4.53,0,0,0-.48,4.18,22.69,22.69,0,0,1-1.77-2,4,4,0,0,1-1-2.9l-2.89,4.33a3.91,3.91,0,0,1,3,0c.46.15,1.57.59,2.42.94a4.5,4.5,0,0,0-3.67,2,4.33,4.33,0,1,0,7,5Z"/><path class="cls-6" d="M72.31,192.06l-61.7,92.16a8.65,8.65,0,0,0,2.39,12l93.34,62.49c-1.24-34.25,1.65-89.83,27-136.17l-49-32.82A8.64,8.64,0,0,0,72.31,192.06Z"/><path class="cls-7" d="M417.66,404.09a8.75,8.75,0,0,1-12.35-.67l-75.07-83.69a8.74,8.74,0,0,1,.68-12.35L454.81,196.24a8.74,8.74,0,0,1,12.35.67l75.07,83.68a8.75,8.75,0,0,1-.67,12.35Z"/><path class="cls-8" d="M416,293.45a125,125,0,0,1-3.08,27.62,98.08,98.08,0,0,1,27.79-.06c11.45,1.59,19.78,4.45,26.94-2,7.35-6.59,7.76-18.09.94-25.7a18.61,18.61,0,0,0-18-5.82A18.61,18.61,0,0,0,446.72,269c-6.83-7.6-18.31-8.43-25.65-1.85C414,273.49,416.07,281.43,416,293.45Z"/><path class="cls-8" d="M457.52,227.18l-4.22-4.71.62-.55a6.18,6.18,0,0,0,1.1.87c.34.19.57.24.69.12a1.11,1.11,0,0,0,.18-.19,1.7,1.7,0,0,0,.17-.23l1.94-3.44-3.56-4c-.54.22-1,.42-1.39.6l-1.07.5c-.31.16-.56.29-.75.41a5.15,5.15,0,0,0-.42.31q-.35.32-.09,1a4.76,4.76,0,0,0,.79,1.33l-.63.56-3.82-4.26.62-.56a4.64,4.64,0,0,0,.57.43,2.08,2.08,0,0,0,.69.31,2.72,2.72,0,0,0,.93.05,4.12,4.12,0,0,0,1-.3q3.11-1.24,6.95-2.84l6.86-2.84.57.64-7.37,13.41a3.13,3.13,0,0,0-.3.76,2.59,2.59,0,0,0,0,.8,2.12,2.12,0,0,0,.22.66,2.36,2.36,0,0,0,.35.57Zm1-9.12,3.3-6.05-6.35,2.65Z"/><path class="cls-8" d="M437.34,227.82a31.22,31.22,0,0,1-.77,6.94,24.52,24.52,0,0,1,7,0c2.88.4,5,1.12,6.77-.49a4.58,4.58,0,0,0,.24-6.46,4.66,4.66,0,0,0-4.52-1.46,4.7,4.7,0,0,0-1-4.66,4.56,4.56,0,0,0-6.44-.46C436.84,222.81,437.37,224.8,437.34,227.82Z"/><path class="cls-8" d="M413.76,372.57l4.22,4.7-.62.56a5.48,5.48,0,0,0-1.11-.87c-.33-.2-.56-.24-.68-.12a1,1,0,0,0-.19.18l-.16.23-2,3.45,3.57,4c.54-.22,1-.41,1.39-.59l1.07-.51a7.15,7.15,0,0,0,.74-.41,3.84,3.84,0,0,0,.43-.3q.34-.32.09-1a4.8,4.8,0,0,0-.79-1.34l.62-.56,3.82,4.26-.62.56a3.81,3.81,0,0,0-.56-.43,2.68,2.68,0,0,0-.68-.31,2.59,2.59,0,0,0-1,0,4.27,4.27,0,0,0-1,.29c-2.07.84-4.39,1.78-6.94,2.84L406.58,390l-.57-.63,7.36-13.41a2.88,2.88,0,0,0,.31-.77,2.53,2.53,0,0,0,0-.79,1.82,1.82,0,0,0-.22-.66,3.14,3.14,0,0,0-.35-.58Zm-1,9.12-3.3,6,6.35-2.64Z"/><path class="cls-8" d="M433.94,371.93a31.1,31.1,0,0,1,.77-6.94,24.77,24.77,0,0,1-7,0c-2.88-.39-5-1.12-6.77.5a4.58,4.58,0,0,0-.24,6.46,4.7,4.7,0,0,0,4.52,1.46,4.68,4.68,0,0,0,1,4.65,4.56,4.56,0,0,0,6.44.47C434.44,376.94,433.91,375,433.94,371.93Z"/><path class="cls-9" d="M541.05,280.64,467,198.08a8.65,8.65,0,0,0-12.21-.65l-83.61,75c33.49,7.26,86.64,23.79,125.28,59.8l43.92-39.39A8.66,8.66,0,0,0,541.05,280.64Z"/><path class="cls-10" d="M294.71,296.78a8.76,8.76,0,0,1-7.35,10L176.2,323.53a8.74,8.74,0,0,1-9.95-7.34L141.39,151.61a8.74,8.74,0,0,1,7.34-10l111.16-16.79a8.73,8.73,0,0,1,9.95,7.33Z"/><polygon class="cls-8" points="214.38 187.38 193.81 226.75 225.09 258.3 245.67 218.92 214.38 187.38"/><path class="cls-8" d="M168.73,166.34l-6.24.94-.13-.83a6.18,6.18,0,0,0,1.34-.44c.34-.17.5-.34.47-.51a1.76,1.76,0,0,0-.06-.25,1.28,1.28,0,0,0-.1-.26l-1.8-3.52-5.28.8c-.11.57-.2,1.07-.26,1.49s-.12.81-.17,1.17-.06.63-.07.85a3.74,3.74,0,0,0,0,.52c0,.31.3.51.77.62a4.93,4.93,0,0,0,1.55.07l.13.83-5.66.86-.13-.83a3.24,3.24,0,0,0,.67-.24,2.07,2.07,0,0,0,.64-.4,2.65,2.65,0,0,0,.55-.76,4.14,4.14,0,0,0,.31-1q.68-3.27,1.45-7.37t1.39-7.28l.84-.13,7.17,13.51a3.06,3.06,0,0,0,.47.69,2.78,2.78,0,0,0,.64.46,2.67,2.67,0,0,0,.68.18,3.15,3.15,0,0,0,.67,0Zm-7.07-5.85-3.24-6.07-1.28,6.75Z"/><polygon class="cls-8" points="161.23 170.83 154.23 184.23 164.88 194.96 171.88 181.56 161.23 170.83"/><path class="cls-8" d="M269,284l6.24-.94.13.82a6.56,6.56,0,0,0-1.34.44c-.35.18-.5.35-.48.52a1.76,1.76,0,0,0,.06.25,1.27,1.27,0,0,0,.11.26l1.8,3.52,5.27-.8q.18-.86.27-1.5c.06-.42.12-.8.17-1.16a7.77,7.77,0,0,0,.06-.85,2,2,0,0,0,0-.52c0-.31-.29-.52-.77-.62a4.89,4.89,0,0,0-1.55-.08l-.12-.82,5.66-.86.12.83a4.47,4.47,0,0,0-.67.23,2.63,2.63,0,0,0-.63.4,3,3,0,0,0-.56.76,4.92,4.92,0,0,0-.31,1q-.66,3.27-1.44,7.37t-1.39,7.27l-.85.13-7.16-13.51a3,3,0,0,0-.47-.68,2.65,2.65,0,0,0-.65-.46,2,2,0,0,0-.67-.18,3.24,3.24,0,0,0-.68,0Zm7.06,5.85,3.25,6.07,1.27-6.75Z"/><polygon class="cls-8" points="276.49 279.46 283.49 266.06 272.84 255.32 265.84 268.73 276.49 279.46"/><path class="cls-11" d="M259.28,125.88,149.61,142.45a8.65,8.65,0,0,0-7.24,9.85l16.78,111.06c24.46-24,67.46-59.34,118.77-71.87l-8.82-58.34A8.64,8.64,0,0,0,259.28,125.88Z"/><path class="cls-12" d="M375.84,320a8.74,8.74,0,0,1-11,5.59L258,290.6a8.75,8.75,0,0,1-5.59-11l51.76-158.19a8.75,8.75,0,0,1,11-5.6l106.85,35a8.74,8.74,0,0,1,5.59,11Z"/><path class="cls-5" d="M359.72,212.3a116.68,116.68,0,0,1-10.38-23.71,91.3,91.3,0,0,1-22.38,13c-10,4-18,5.61-20.81,14.13-2.86,8.73,2.16,18.21,11.21,21.17a17.38,17.38,0,0,0,15.88-2.56,88.87,88.87,0,0,1-5.37,8.54c-4.9,6.29-9.72,6.68-9.72,6.68l19,6.23s-3.46-3.52-3.14-11c.09-1.89.57-6.53,1-10.05a17.37,17.37,0,0,0,11.34,11.59c9.05,3,18.7-1.72,21.55-10.45C370.62,227.48,365.24,222,359.72,212.3Z"/><path class="cls-5" d="M315.88,152.83a28.33,28.33,0,0,1-2.53-5.8,22.23,22.23,0,0,1-5.48,3.18c-2.45,1-4.41,1.37-5.09,3.46a4.13,4.13,0,0,0,2.73,5.17,4.25,4.25,0,0,0,3.89-.62,20,20,0,0,1-1.32,2.08,3.77,3.77,0,0,1-2.36,1.64l4.64,1.52a3.67,3.67,0,0,1-.77-2.68c0-.46.14-1.6.24-2.46a4.23,4.23,0,0,0,2.77,2.84,4.15,4.15,0,0,0,5.27-2.56C318.54,156.54,317.22,155.21,315.88,152.83Z"/><path class="cls-5" d="M321.93,146.82l-6-2,.26-.8a6.81,6.81,0,0,0,1.39.21c.39,0,.61-.08.66-.25a1.31,1.31,0,0,0,.06-.25.9.9,0,0,0,0-.28l0-4-5.06-1.66c-.36.46-.66.86-.92,1.22l-.67,1c-.19.3-.34.54-.44.73a2.93,2.93,0,0,0-.21.48c-.1.3.05.6.41.9a5.16,5.16,0,0,0,1.35.76l-.26.8L307.06,142l.25-.79a4,4,0,0,0,.71.08,2.09,2.09,0,0,0,.74-.07,2.76,2.76,0,0,0,.84-.43,3.93,3.93,0,0,0,.74-.77q2.07-2.62,4.6-5.93l4.51-5.88.82.26.32,15.29a3,3,0,0,0,.12.82,2.56,2.56,0,0,0,.37.71,2.45,2.45,0,0,0,.52.46,3,3,0,0,0,.59.32Zm-3.68-8.4-.17-6.88L313.91,137Z"/><path class="cls-5" d="M364.43,291a28.5,28.5,0,0,1,2.54,5.8,22.23,22.23,0,0,1,5.48-3.18c2.44-1,4.4-1.37,5.08-3.45a4.13,4.13,0,0,0-2.74-5.18,4.22,4.22,0,0,0-3.88.63,19.18,19.18,0,0,1,1.32-2.09,3.79,3.79,0,0,1,2.38-1.64L370,280.41a3.67,3.67,0,0,1,.77,2.68c0,.46-.14,1.59-.23,2.46a4.26,4.26,0,0,0-2.78-2.84,4.15,4.15,0,0,0-5.27,2.56C361.77,287.33,363.08,288.65,364.43,291Z"/><path class="cls-5" d="M358.38,297.05l6,2-.26.79a6.81,6.81,0,0,0-1.39-.21c-.39,0-.61.08-.66.25s0,.15-.06.25a.92.92,0,0,0,0,.28l0,3.95,5.07,1.66c.36-.46.66-.87.91-1.22s.47-.67.67-1a7.05,7.05,0,0,0,.44-.72,3.32,3.32,0,0,0,.21-.47c.1-.3,0-.61-.41-.91a5.48,5.48,0,0,0-1.35-.77l.26-.79,5.44,1.78-.26.79a4,4,0,0,0-.7-.08,2.13,2.13,0,0,0-.75.07,2.76,2.76,0,0,0-.84.43,4.24,4.24,0,0,0-.73.77q-2.07,2.64-4.61,5.93l-4.51,5.88-.81-.26-.34-15.3a3.22,3.22,0,0,0-.1-.82,3.07,3.07,0,0,0-.38-.7,2.2,2.2,0,0,0-.52-.46,3,3,0,0,0-.59-.32Zm3.68,8.4.17,6.89,4.18-5.47Z"/><path class="cls-13" d="M421,151.37,315.59,116.88a8.64,8.64,0,0,0-10.89,5.55L269.77,229.19c32.64-10.46,86.94-22.7,138.4-10.84l18.35-56.07A8.65,8.65,0,0,0,421,151.37Z"/><path class="cls-14" d="M471.91,379.78c3.66,38.94-25.84,73.57-65.89,77.33s-75.47-24.77-79.13-63.71,25.85-73.54,65.9-77.3S468.26,340.86,471.91,379.78Z"/><path class="cls-15" d="M405.77,401.67c-.49-.55-1-1.11-1.4-1.69s-.86-1.18-1.24-1.8-.74-1.26-1.06-1.92L382.3,378.35c.29.59.61,1.15.95,1.7s.71,1.09,1.11,1.62.81,1,1.25,1.5a18.1,18.1,0,0,0,1.38,1.39l20.33,18.67C406.78,402.73,406.26,402.21,405.77,401.67Z"/><path class="cls-16" d="M380,378.23c-.36,1-.74,2.12-1.14,3.24s-.82,2.24-1.25,3.34-.85,2.16-1.26,3.12-.83,1.85-1.21,2.58-.82,1.5-1.23,2.18q-.14.24-.3.48c-.4.64-.81,1.25-1.21,1.79a.53.53,0,0,1-.09.11c-.39.52-.77,1-1.16,1.43-.1.12-.2.24-.31.35-.4.44-.79.86-1.17,1.22l0,0c-.38.36-.75.68-1.11,1l-.23.19c-.18.15-.36.26-.53.39-.33.24-.65.46-1,.64a3.61,3.61,0,0,1-.36.23c-.35.2-.67.38-.94.51l-.06,0c-.32.15-.58.26-.77.33h0l-.35.12,17.54,20.78.12,0,.26-.09h0l.23-.09.14-.06h0a4.59,4.59,0,0,0,.52-.24l.18-.09c.27-.13.59-.3.93-.5l.43-.27c.16-.1.31-.18.48-.3l.56-.4c.11-.09.22-.15.34-.24l.27-.22.25-.21c.4-.32.81-.67,1.22-1.07l.07-.05v0c.43-.41.88-.88,1.33-1.38.11-.11.2-.23.31-.35l.4-.44a32.21,32.21,0,0,0,2.38-3.32c.12-.18.23-.37.35-.56.46-.75.93-1.55,1.38-2.43s.89-1.81,1.35-2.9.95-2.27,1.42-3.5,1-2.51,1.41-3.76.89-2.49,1.29-3.64Z"/><path class="cls-17" d="M389.79,315.52c-.12.15-.78,1-2,2.28s-2.89,3.1-5.06,5.2-4.85,4.51-8,7a123.54,123.54,0,0,1-10.67,7.78c-3,1.92-5.83,3.62-8.46,5.27a68.7,68.7,0,0,0-7.13,5,23.89,23.89,0,0,0-5.2,5.71,18.28,18.28,0,0,0-2.63,7.5,20.63,20.63,0,0,0-.11,4.57,21,21,0,0,0,.85,4.36,22.07,22.07,0,0,0,1.71,4,22.37,22.37,0,0,0,2.5,3.59l14.44,16.92.85,1a24.14,24.14,0,0,1-2.79-4,23.73,23.73,0,0,1-2.87-9.42,22.75,22.75,0,0,1,.12-5.14,20.62,20.62,0,0,1,3-8.43,26.55,26.55,0,0,1,5.85-6.41,74.34,74.34,0,0,1,8-5.58c3-1.86,6.17-3.77,9.5-5.94a138.86,138.86,0,0,0,12-8.75c3.5-2.84,6.49-5.55,8.95-7.92s4.35-4.38,5.68-5.85,2.08-2.39,2.22-2.57Z"/><path class="cls-18" d="M410.59,325.68c.08.18.56,1.17,1.44,2.81s2.18,3.95,3.91,6.76,3.88,6.13,6.49,9.8,5.68,7.7,9.22,11.93c2.61,3.12,5.13,5.85,7.42,8.39a83.46,83.46,0,0,1,6,7.25,25,25,0,0,1,3.72,7.32,20,20,0,0,1,.55,8.59,23.68,23.68,0,0,1-3.23,9.12,25.12,25.12,0,0,1-6.35,7,25.6,25.6,0,0,1-18.46,5,25.27,25.27,0,0,1-6.16-1.53,24.61,24.61,0,0,1-5.39-2.87,24.14,24.14,0,0,1-4.42-4,23.5,23.5,0,0,1-3.28-4.93c.08,1.3.18,2.69.29,4.09s.22,2.82.34,4.16.23,2.6.33,3.71.22,2,.32,2.73a29.93,29.93,0,0,0,1.72,6.79,21.93,21.93,0,0,0,2.39,4.51,16,16,0,0,0,2.16,2.54,8.28,8.28,0,0,0,1.06.88l-28.87-3.38a7.1,7.1,0,0,0,1.28-.51A16.12,16.12,0,0,0,386,420a24.39,24.39,0,0,0,3.86-3.74,35.39,35.39,0,0,0,4.11-6.31c.43-.82.89-1.81,1.35-2.9s.95-2.27,1.42-3.5,1-2.51,1.41-3.76.89-2.49,1.29-3.64a24.75,24.75,0,0,1-4.5,3.93,26,26,0,0,1-27.16,1.26,25.06,25.06,0,0,1-7.29-6.14,24,24,0,0,1-4.36-8.35,23.46,23.46,0,0,1-.73-9.7,20.62,20.62,0,0,1,3-8.43,26.55,26.55,0,0,1,5.85-6.41,74.34,74.34,0,0,1,8-5.58c3-1.86,6.17-3.77,9.5-5.94a138.86,138.86,0,0,0,12-8.75c3.5-2.84,6.49-5.55,8.95-7.92s4.35-4.38,5.68-5.85S410.45,325.86,410.59,325.68Z"/><path class="cls-19" d="M410.59,325.68c.08.18.56,1.17,1.44,2.81s2.18,3.95,3.91,6.76,3.88,6.13,6.49,9.8,5.68,7.7,9.22,11.93c2.61,3.12,5.13,5.85,7.42,8.39a83.46,83.46,0,0,1,6,7.25,25,25,0,0,1,3.72,7.32,20,20,0,0,1,.55,8.59,23.68,23.68,0,0,1-3.23,9.12,25.12,25.12,0,0,1-6.35,7,25.6,25.6,0,0,1-18.46,5,25.27,25.27,0,0,1-6.16-1.53,24.61,24.61,0,0,1-5.39-2.87,24.14,24.14,0,0,1-4.42-4,23.5,23.5,0,0,1-3.28-4.93c.08,1.3.18,2.69.29,4.09s.22,2.82.34,4.16.23,2.6.33,3.71.22,2,.32,2.73a29.93,29.93,0,0,0,1.72,6.79,21.93,21.93,0,0,0,2.39,4.51,16,16,0,0,0,2.16,2.54,8.28,8.28,0,0,0,1.06.88l-28.87-3.38a7.1,7.1,0,0,0,1.28-.51A16.12,16.12,0,0,0,386,420a24.39,24.39,0,0,0,3.86-3.74,35.39,35.39,0,0,0,4.11-6.31c.43-.82.89-1.81,1.35-2.9s.95-2.27,1.42-3.5,1-2.51,1.41-3.76.89-2.49,1.29-3.64a24.75,24.75,0,0,1-4.5,3.93,26,26,0,0,1-27.16,1.26,25.06,25.06,0,0,1-7.29-6.14,24,24,0,0,1-4.36-8.35,23.46,23.46,0,0,1-.73-9.7,20.62,20.62,0,0,1,3-8.43,26.55,26.55,0,0,1,5.85-6.41,74.34,74.34,0,0,1,8-5.58c3-1.86,6.17-3.77,9.5-5.94a138.86,138.86,0,0,0,12-8.75c3.5-2.84,6.49-5.55,8.95-7.92s4.35-4.38,5.68-5.85S410.45,325.86,410.59,325.68Z"/><path class="cls-20" d="M410.84,326.45c.08.18.56,1.16,1.43,2.79s2.16,3.92,3.88,6.71,3.85,6.08,6.45,9.73,5.63,7.64,9.14,11.84c2.6,3.09,5.1,5.81,7.37,8.33a80.69,80.69,0,0,1,6,7.2,24.43,24.43,0,0,1,3.69,7.26,19.67,19.67,0,0,1,.55,8.52,23.64,23.64,0,0,1-3.2,9.05,24.76,24.76,0,0,1-6.3,6.95,25.42,25.42,0,0,1-8.51,4.18,25.63,25.63,0,0,1-15.95-.77,24.54,24.54,0,0,1-9.73-6.84,23.5,23.5,0,0,1-3.25-4.89c.09,1.28.18,2.67.29,4.06s.22,2.8.33,4.13.23,2.59.34,3.68.21,2,.31,2.71a29.34,29.34,0,0,0,1.71,6.74,21.91,21.91,0,0,0,2.37,4.48,16.25,16.25,0,0,0,2.14,2.52,7.73,7.73,0,0,0,1.06.87l-28.67-3.35a7,7,0,0,0,1.29-.51,16.26,16.26,0,0,0,2.89-1.79,23.58,23.58,0,0,0,3.82-3.71,34.64,34.64,0,0,0,4.09-6.26c.43-.82.87-1.8,1.34-2.88s.94-2.26,1.42-3.48.94-2.49,1.39-3.73.88-2.46,1.28-3.61a25.18,25.18,0,0,1-4.47,3.9,25.65,25.65,0,0,1-5.29,2.78,25.75,25.75,0,0,1-12.24,1.5,25.47,25.47,0,0,1-9.42-3,24.67,24.67,0,0,1-7.24-6.09,23.74,23.74,0,0,1-4.34-8.28,23.44,23.44,0,0,1-.72-9.62,20.43,20.43,0,0,1,2.95-8.37,26.37,26.37,0,0,1,5.8-6.37,77.23,77.23,0,0,1,8-5.55c2.94-1.83,6.11-3.73,9.43-5.88a140.49,140.49,0,0,0,11.91-8.69c3.48-2.82,6.45-5.51,8.88-7.86s4.32-4.35,5.64-5.82S410.7,326.62,410.84,326.45Z"/><path class="cls-21" d="M431.74,357.52c-3.51-4.2-6.55-8.2-9.14-11.84s-4.74-6.94-6.45-9.73-3-5.08-3.88-6.71-1.35-2.61-1.43-2.79c-.14.17-.89,1.08-2.21,2.54s-3.21,3.47-5.64,5.82-5.4,5-8.88,7.86a140.49,140.49,0,0,1-11.91,8.69c-3.32,2.15-6.49,4.05-9.43,5.88a77.23,77.23,0,0,0-8,5.55,26.37,26.37,0,0,0-5.8,6.37,20.43,20.43,0,0,0-2.95,8.37,23,23,0,0,0-.16,4c14.57-7.22,47.22-21.7,76.56-23.13C432.23,358.08,432,357.81,431.74,357.52Z"/><path class="cls-22" d="M275.38,340.17c3.65,38.93-25.84,73.57-65.89,77.32S134,392.72,130.36,353.78s25.85-73.54,65.89-77.3S271.72,301.25,275.38,340.17Z"/><path class="cls-23" d="M236.65,366.64c-.58-.41-1.14-.85-1.69-1.31s-1.05-.94-1.56-1.45-1-1-1.42-1.58L208.81,349c.41.49.83,1,1.28,1.41s.91.88,1.39,1.29,1,.8,1.51,1.17,1.06.71,1.61,1l23.86,13.87C237.84,367.43,237.23,367.05,236.65,366.64Z"/><path class="cls-24" d="M255.78,322.71c.68.1,1.35.24,2,.39l.5.13c.66.16,1.3.35,1.93.56l-26.25-9c-.42-.15-.85-.28-1.29-.4l-.45-.12-.21-.06-.22,0-.44-.11c-.45-.09-.9-.18-1.36-.24s-.91-.13-1.38-.16c-.23,0-.46,0-.7-.06l-.7,0h-.71c-.24,0-.48,0-.72,0l25.27,8.88c.8,0,1.59,0,2.37,0h0C254.24,322.52,255,322.59,255.78,322.71Z"/><path class="cls-25" d="M206.46,349.19c-.12,1.07-.26,2.23-.42,3.41s-.32,2.39-.49,3.55-.37,2.3-.57,3.35-.41,2-.62,2.78c-.31,1.14-.65,2.17-1,3.13-.11.29-.22.56-.34.84-.27.66-.54,1.28-.83,1.86-.12.23-.24.48-.35.7-.37.68-.74,1.31-1.11,1.87,0,0-.05.09-.08.14-.41.59-.8,1.11-1.19,1.57l-.34.39c-.28.31-.54.6-.8.85l-.3.29c-.27.25-.53.47-.76.65l-.12.1a7.14,7.14,0,0,1-.67.48h0a2.81,2.81,0,0,1-.32.19l21.59,16.55.12-.07.23-.14h0l.32-.21.43-.31,0,0,0,0,.07-.06c.26-.21.56-.46.88-.76l.36-.34.41-.41c.15-.15.31-.35.46-.53l.28-.29.12-.15c.42-.52.86-1.08,1.31-1.75l0,0,.1-.17c.41-.62.82-1.32,1.23-2.08.06-.11.12-.19.18-.3.24-.47.47-.95.71-1.47h0c.32-.71.62-1.49.92-2.3l.21-.59c.29-.85.57-1.73.83-2.68s.47-2,.7-3.14.43-2.44.63-3.75.4-2.66.57-4,.34-2.62.47-3.83Z"/><path class="cls-26" d="M227.26,291.26q.94,0,1.86.06l.23,0c.63.05,1.24.12,1.85.21l.15,0c.65.1,1.29.23,1.93.38l-23.38-5.54c-.26-.07-.52-.12-.78-.17s-.53-.11-.8-.15l-.14,0h-.13l-.53-.08-.82-.08-.29,0h-.23l-.5,0-1,0h-.32l-.71,0c-.35,0-.71,0-1.05.07h-.26l-.13,0h-.13l-1,.13-.67.12-.13,0a1.08,1.08,0,0,0-.19,0c-.33.06-.65.13-1,.22l-1,.25h-.05l-.9.28c-.31.1-.62.21-.92.33l-.19.08-.17.07-.55.23c-.3.13-.59.26-.88.41l-.36.18-.11.05-.05,0-.48.25c-.33.18-.65.37-1,.56l-.93.61c-.31.21-.61.43-.91.65l-.17.16-.4.34a22.92,22.92,0,0,0-2.47,2.36c-.1.11-.24.21-.34.33s-.1.15-.16.23-.24.24-.35.37a22.46,22.46,0,0,0-1.8,2.65c-.13.21-.24.43-.36.65-.23.43-.48.85-.69,1.29s-.48,1.19-.7,1.8c0,.12-.12.23-.16.36s0,.15-.07.23-.11.41-.17.62c-.17.59-.33,1.2-.46,1.82,0,.13-.06.24-.08.37s0,.29-.05.44a17.83,17.83,0,0,0-.21,1.79c0,.26,0,.52-.06.79a22.3,22.3,0,0,0,.05,2.58c.06.7.15,1.38.27,2s.28,1.32.46,2,.4,1.27.64,1.89a19.21,19.21,0,0,0,.81,1.79l20.2,9.41a20.51,20.51,0,0,1-.9-2,20.94,20.94,0,0,1-.72-2.11c-.2-.72-.37-1.46-.51-2.21a21.57,21.57,0,0,1-.3-2.3,23.52,23.52,0,0,1-.06-2.9c0-.3.05-.59.07-.89,0-.68.13-1.35.23-2,.05-.31.1-.62.16-.92.14-.68.31-1.36.51-2,.07-.24.13-.48.2-.72a23.78,23.78,0,0,1,1-2.58c.07-.17.16-.32.24-.48.33-.68.68-1.34,1.07-2,.15-.26.32-.51.49-.76.35-.55.73-1.08,1.13-1.59l.55-.71q.72-.87,1.53-1.68l.36-.38a24.61,24.61,0,0,1,2.11-1.82c.53-.41,1.07-.8,1.63-1.17l.26-.17c.59-.38,1.21-.74,1.85-1.07l.28-.15c.65-.34,1.32-.64,2-.92l.18-.07c.73-.29,1.48-.56,2.25-.79h.05c.77-.23,1.57-.41,2.37-.57l.19,0a24.28,24.28,0,0,1,2.44-.34c.65-.06,1.3-.09,1.94-.1Z"/><path class="cls-27" d="M185.16,363.05a22.71,22.71,0,0,1-2-4.57,23.89,23.89,0,0,1-1-5.05,25.27,25.27,0,0,1-.06-2.88l.06-.87c.05-.67.13-1.34.23-2,0-.3.1-.6.16-.9.15-.75.34-1.49.55-2.21.05-.16.08-.33.13-.49a24.7,24.7,0,0,1,1-2.56c.1-.24.23-.46.34-.68.3-.62.62-1.22,1-1.8.15-.26.32-.51.47-.76.39-.6.8-1.17,1.24-1.73.13-.17.25-.35.39-.52a26.11,26.11,0,0,1,1.87-2.06l.41-.36c.54-.51,1.11-1,1.71-1.48.44-.35.89-.7,1.36-1l.12-.08c.63-.42,1.27-.82,1.93-1.19h0c.7-.39,1.42-.74,2.15-1.06l0,0c.7-.31,1.43-.58,2.17-.83l.22-.07q1.05-.34,2.13-.6l.21-.05c.78-.17,1.56-.32,2.37-.42l-20.2-9.41-.92.14-.9.17-.28.07-.21,0-.4.09c-.29.08-.58.15-.87.24l-.64.2-.16.05-.15,0c-.32.11-.63.23-.93.35l-.86.35,0,0h0l-.89.41c-.34.17-.68.34-1,.52s-.65.37-1,.57l-.94.61-.9.65-.43.37c-.22.18-.42.37-.63.55a21.72,21.72,0,0,0-2.31,2.29c-.09.1-.2.19-.3.29l-.08.13c0,.06-.11.11-.15.17a20.38,20.38,0,0,0-1.9,2.81c-.15.26-.28.52-.42.77s-.39.67-.55,1a22.64,22.64,0,0,0-.82,2.12,2.29,2.29,0,0,0-.1.23.38.38,0,0,0,0,.1c0,.15-.08.31-.12.45a18.53,18.53,0,0,0-.49,1.95c0,.12-.07.23-.08.34s0,.32-.06.48c-.09.58-.16,1.18-.2,1.77,0,.27-.05.52-.05.78a19.93,19.93,0,0,0,.05,2.56,21.46,21.46,0,0,0,.87,4.5,20.8,20.8,0,0,0,1.77,4.07,21.39,21.39,0,0,0,2.54,3.57,22.07,22.07,0,0,0,3.2,3q6.83,5.16,13.65,10.34c1.71,1.3,3.42,2.58,5.12,3.88a24.18,24.18,0,0,1-3.59-3.34A23.07,23.07,0,0,1,185.16,363.05Z"/><path class="cls-28" d="M225.05,291.37a25.38,25.38,0,0,1,9.93,1,24.82,24.82,0,0,1,8.38,4.52,24.41,24.41,0,0,1,6,7.27,23.63,23.63,0,0,1,2.71,9.31,22.48,22.48,0,0,1,.08,2.31c0,.76-.06,1.52-.14,2.27s-.2,1.48-.35,2.21-.35,1.45-.56,2.15a25.56,25.56,0,0,1,9.37,1.41,24.5,24.5,0,0,1,7.86,4.57,23.53,23.53,0,0,1,8.12,16,23.94,23.94,0,0,1-1.21,9.61,24.7,24.7,0,0,1-4.7,8.19,25.71,25.71,0,0,1-7.47,5.95,26.05,26.05,0,0,1-9.51,2.84,25.36,25.36,0,0,1-6.29-.16,24.53,24.53,0,0,1-5.84-1.62A24.29,24.29,0,0,1,232,362.3c.36,1.24.75,2.56,1.15,3.89s.81,2.68,1.21,3.94.77,2.46,1.11,3.5.64,1.92.88,2.56a29.25,29.25,0,0,0,3.13,6.27,21.34,21.34,0,0,0,3.3,3.89,16.16,16.16,0,0,0,2.65,2,7.83,7.83,0,0,0,1.23.63l-28.92,2.89a9,9,0,0,0,1.15-.78,16.35,16.35,0,0,0,2.46-2.39,24,24,0,0,0,3-4.47,34.8,34.8,0,0,0,2.67-7c.24-.9.47-2,.7-3.14s.43-2.44.63-3.75.4-2.66.57-4,.34-2.62.47-3.83a25.52,25.52,0,0,1-8.17,8.71,25.63,25.63,0,0,1-5.52,2.75,26.12,26.12,0,0,1-6.23,1.39,25.59,25.59,0,0,1-9.93-1A24.91,24.91,0,0,1,191,370a23.93,23.93,0,0,1-6-7.22,23.38,23.38,0,0,1-2.79-9.32,24,24,0,0,1,1.1-9.47,25,25,0,0,1,4.54-8.15,25.86,25.86,0,0,1,16.54-9.05,20.51,20.51,0,0,1-.9-2,20.94,20.94,0,0,1-.72-2.11c-.2-.72-.37-1.46-.51-2.21a21.57,21.57,0,0,1-.3-2.3,24,24,0,0,1,1.18-9.71,24.79,24.79,0,0,1,4.75-8.28,25.59,25.59,0,0,1,7.55-6A26,26,0,0,1,225.05,291.37Z"/><path class="cls-29" d="M225.4,292a25.46,25.46,0,0,1,9.87,1,24.75,24.75,0,0,1,8.32,4.49,24.08,24.08,0,0,1,5.93,7.22,23.55,23.55,0,0,1,2.7,9.25c.06.78.09,1.55.08,2.3a21.07,21.07,0,0,1-.15,2.25c-.08.75-.2,1.48-.35,2.2a19.17,19.17,0,0,1-.55,2.14,24.88,24.88,0,0,1,9.32,1.41,24.38,24.38,0,0,1,7.81,4.53,23.74,23.74,0,0,1,5.54,7,23.16,23.16,0,0,1,2.52,8.88,24,24,0,0,1-1.19,9.55,25,25,0,0,1-4.67,8.14A25.67,25.67,0,0,1,247.45,371a24.63,24.63,0,0,1-10.93-4.5,23.75,23.75,0,0,1-4.24-4c.36,1.22.75,2.54,1.15,3.87s.81,2.65,1.2,3.91.76,2.45,1.1,3.48.64,1.9.87,2.54a29.33,29.33,0,0,0,3.12,6.23,21.06,21.06,0,0,0,3.27,3.87,16.3,16.3,0,0,0,2.65,2,8.11,8.11,0,0,0,1.21.62l-28.74,2.87a9,9,0,0,0,1.15-.77,17.09,17.09,0,0,0,2.44-2.37,24,24,0,0,0,2.94-4.45,33.84,33.84,0,0,0,2.65-7c.24-.89.47-1.95.7-3.11s.44-2.43.63-3.73.39-2.65.57-4,.33-2.62.46-3.81a24.93,24.93,0,0,1-3.52,4.79,25.51,25.51,0,0,1-4.6,3.87,26,26,0,0,1-5.48,2.73,26.36,26.36,0,0,1-6.2,1.38,25.49,25.49,0,0,1-9.87-.95,24.74,24.74,0,0,1-8.38-4.4,24,24,0,0,1-6-7.18,23.52,23.52,0,0,1-2.77-9.25,23.89,23.89,0,0,1,1.1-9.42,25,25,0,0,1,4.51-8.1,25.67,25.67,0,0,1,16.44-9q-.5-1-.9-2a20.72,20.72,0,0,1-.71-2.1,22,22,0,0,1-.51-2.2,20.87,20.87,0,0,1-.3-2.28,23.9,23.9,0,0,1,1.17-9.65,24.84,24.84,0,0,1,4.72-8.23A25.54,25.54,0,0,1,225.4,292Z"/><path class="cls-30" d="M263,325.26a24.53,24.53,0,0,0-11.71-2.41,19.17,19.17,0,0,0,.55-2.14c.15-.72.27-1.45.35-2.2a21.07,21.07,0,0,0,.15-2.25c0-.75,0-1.52-.08-2.3a23.55,23.55,0,0,0-2.7-9.25,24.08,24.08,0,0,0-5.93-7.22,24.75,24.75,0,0,0-8.32-4.49,25.62,25.62,0,0,0-26.94,7.66,24.84,24.84,0,0,0-4.72,8.23,23.9,23.9,0,0,0-1.17,9.65,20.87,20.87,0,0,0,.3,2.28,22,22,0,0,0,.51,2.2,20.72,20.72,0,0,0,.71,2.1q.4,1,.9,2a25.67,25.67,0,0,0-16.44,9,25,25,0,0,0-4.51,8.1,23.89,23.89,0,0,0-1.1,9.42c.06.65.16,1.29.27,1.93C199.65,345.82,234.83,327.06,263,325.26Z"/><path class="cls-31" d="M173.78,320.65c31.55,23.12,37.88,68.16,14.12,100.61s-68.63,40-100.18,16.9S49.86,370,73.63,337.57,142.24,297.55,173.78,320.65Z"/><polygon class="cls-32" points="187.32 426.67 158.68 423.49 101.14 403.62 122.84 404.36 187.32 426.67"/><polygon class="cls-33" points="122.84 404.36 101.14 403.62 102.54 341.92 124.39 334.97 122.84 404.36"/><polygon class="cls-34" points="124.39 334.97 188.85 357.8 187.32 426.67 122.84 404.36 124.39 334.97"/><polygon class="cls-35" points="125.22 335.55 189.13 358.19 187.61 426.47 123.68 404.35 125.22 335.55"/><path class="cls-36" d="M125.22,335.55l-1.54,68.8,12.82,4.43c3.59-15.33,11.23-40.13,26-60Z"/><path class="cls-37" d="M360.39,324.92c-2,37.58-34.89,66.43-73.54,64.42s-68.4-34.14-66.44-71.72S255.3,251.21,294,253.23,362.35,287.35,360.39,324.92Z"/><path class="cls-38" d="M351.08,289.37c.67-.1,1.34-.18,2-.23l.28,0q1-.06,1.92-.06h.25c.7,0,1.39.05,2.07.11l-28.11-2.6-.88-.07-.88,0h-.89l-.9,0h-.33l-.16,0-.58,0c-.35,0-.71.08-1.07.14h-.17l-.15,0-.76.12-1.08.24-.14,0-.13,0-.13,0-.14,0-1,.3c-.34.1-.67.22-1,.34-.19.06-.37.14-.56.21l-.13.05-.29.11-1,.42c-.32.14-.63.29-.94.45l-.67.36s0,0-.06,0l0,0-.15.08c-.3.17-.59.34-.89.53l-.85.56c-.24.16-.47.33-.7.51l-.12.09-.15.1-.92.74c-.31.25-.6.52-.89.78l-.34.34-.08.07a.27.27,0,0,0-.07.08l-.35.33c-.34.35-.63.74-1,1.11s-.6.66-.87,1l-.14.16c-.32.43-.59.89-.88,1.34s-.44.59-.63.91a1.55,1.55,0,0,1-.15.25c-.32.56-.58,1.16-.86,1.74-.13.3-.31.57-.43.87l0,.07a23.71,23.71,0,0,0-1,2.83l25,4.79a24.66,24.66,0,0,1,1.14-3.26c.14-.34.34-.67.49-1,.34-.7.67-1.4,1.06-2.07.23-.39.5-.75.75-1.13.38-.58.75-1.18,1.18-1.72s.65-.77,1-1.14c.48-.55.93-1.11,1.45-1.62l.18-.17a25.77,25.77,0,0,1,2.56-2.2l.16-.12a25.63,25.63,0,0,1,2.9-1.87,1.05,1.05,0,0,1,.11-.07,28.22,28.22,0,0,1,3.19-1.5l.16-.06a25.71,25.71,0,0,1,3.52-1.1c.71-.18,1.42-.31,2.13-.43Z"/><path class="cls-39" d="M342.77,378.07c-1.48-1.28-3.63-3.05-6.39-5.17s-6.15-4.55-10.13-7.19-8.57-5.45-13.72-8.31c-3.8-2.1-7.38-3.85-10.65-5.51A87,87,0,0,1,293,347a27.1,27.1,0,0,1-6.6-5.91,21.42,21.42,0,0,1-3.88-8.42,24.73,24.73,0,0,1-.51-3c0-.32,0-.64-.07-.95-.05-.71-.08-1.42-.07-2.12,0-.35,0-.69,0-1,0-.73.12-1.44.22-2.16,0-.27.06-.55.1-.83a28.19,28.19,0,0,1,.66-2.86c.06-.19.13-.37.19-.55.24-.76.51-1.51.82-2.24.12-.3.27-.6.4-.89q.44-.94.93-1.83l.49-.86c.42-.68.88-1.36,1.36-2,.1-.14.2-.3.31-.43a28.1,28.1,0,0,1,1.95-2.27c.49-.51,1-1,1.54-1.47l.25-.23c.57-.49,1.16-1,1.78-1.41a3.15,3.15,0,0,1,.29-.22c.62-.45,1.27-.87,1.95-1.27l.19-.11a25.37,25.37,0,0,1,2.26-1.17l0,0a25.68,25.68,0,0,1,2.43-1l.19-.07c.82-.28,1.66-.53,2.52-.74s1.8-.37,2.68-.5l.2,0c.81-.11,1.61-.17,2.41-.21h.45a22.8,22.8,0,0,1,2.34,0l.34,0c.81.06,1.62.15,2.41.28l-23.34-3.86c-.43-.07-.87-.14-1.31-.18l-.88-.08-.16,0h-.28l-1.35,0h-.57c-.07,0-.14,0-.21,0l-.17,0H285l-1.07.08-.7.09H283l-.23,0q-.54.07-1.08.18c-.36.07-.73.15-1.09.24l-.13,0-.13,0-.14,0-.13,0c-.36.09-.7.19-1,.3l-.66.22-.2.06-.16.06c-.33.12-.66.24-1,.38s-.65.27-1,.42h0l0,0c-.3.13-.6.28-.89.43s-.62.32-.93.5l-.17.1-.21.12-.52.31-.87.57-.32.23-.14.09-.06.06-.45.32c-.32.25-.63.49-.94.75s-.6.52-.89.79-.57.55-.85.83c-.06.06-.1.13-.16.19s-.25.29-.38.43a25.63,25.63,0,0,0-2.24,2.86c-.09.14-.21.26-.31.41s-.15.28-.24.41a3.13,3.13,0,0,1-.2.3c-.09.16-.15.32-.24.48-.3.52-.57,1.06-.82,1.61-.13.27-.25.53-.36.8-.28.67-.53,1.34-.75,2,0,.12-.09.23-.13.35a.17.17,0,0,0,0,.07,23.46,23.46,0,0,0-.57,2.34,2,2,0,0,1,0,.24c0,.23,0,.46-.08.69a18.25,18.25,0,0,0-.2,2c0,.14,0,.27,0,.41a3.85,3.85,0,0,0,0,.48c0,.64,0,1.27.06,1.92,0,.27,0,.54.06.81a21.42,21.42,0,0,0,.45,2.72,19.16,19.16,0,0,0,3.47,7.49,23.91,23.91,0,0,0,5.88,5.26,80.94,80.94,0,0,0,7.89,4.39c2.92,1.48,6.11,3,9.5,4.91,4.59,2.55,8.68,5.06,12.23,7.41s6.58,4.54,9.05,6.42,4.37,3.46,5.7,4.6,2.07,1.84,2.21,2l26.71,12.64C345.1,380.14,344.26,379.35,342.77,378.07Z"/><path class="cls-40" d="M348.81,289.82a26.67,26.67,0,0,1,10.53-.43,26.25,26.25,0,0,1,9.45,3.44,25.68,25.68,0,0,1,7.35,6.7,25.06,25.06,0,0,1,4.26,9.32,22,22,0,0,1,.19,9.42,28.34,28.34,0,0,1-3.36,8.5,79.15,79.15,0,0,1-5.79,8.48c-2.22,2.93-4.65,6-7.12,9.4a150.16,150.16,0,0,0-8.55,13.14c-2.39,4.13-4.33,7.93-5.87,11.19s-2.66,6-3.42,7.93-1.16,3.15-1.23,3.37c-.15-.14-1-.93-2.48-2.21s-3.63-3.05-6.39-5.17-6.15-4.55-10.13-7.19-8.57-5.45-13.72-8.31c-3.8-2.1-7.38-3.85-10.65-5.51A87,87,0,0,1,293,347a27.1,27.1,0,0,1-6.6-5.91,21.42,21.42,0,0,1-3.88-8.42,25.17,25.17,0,0,1-.26-10.39,26.46,26.46,0,0,1,3.73-9.46,27.32,27.32,0,0,1,7.05-7.46,27.59,27.59,0,0,1,17.17-5.2,26.94,26.94,0,0,1,7.08,1.22,26.52,26.52,0,0,1,6.35,3,26.16,26.16,0,0,1,5.31,4.54,26.88,26.88,0,0,1,2.75-6.48,27.15,27.15,0,0,1,10.13-9.86A26.93,26.93,0,0,1,348.81,289.82Z"/><path class="cls-41" d="M349.05,290.23a26.56,26.56,0,0,1,10.47-.43,25.92,25.92,0,0,1,9.4,3.43,25.3,25.3,0,0,1,7.32,6.66,24.77,24.77,0,0,1,4.24,9.28,22.06,22.06,0,0,1,.19,9.37,28.08,28.08,0,0,1-3.35,8.44,78.44,78.44,0,0,1-5.76,8.45c-2.2,2.91-4.62,6-7.08,9.34A148.77,148.77,0,0,0,356,357.85c-2.38,4.1-4.31,7.88-5.83,11.13s-2.65,5.95-3.41,7.89-1.16,3.13-1.22,3.35c-.16-.15-1-.93-2.46-2.2s-3.61-3-6.36-5.14-6.12-4.53-10.08-7.16-8.53-5.42-13.64-8.26c-3.79-2.09-7.34-3.83-10.6-5.48a89.27,89.27,0,0,1-8.8-4.91,26.79,26.79,0,0,1-6.56-5.88,21.38,21.38,0,0,1-3.86-8.37,25.1,25.1,0,0,1-.26-10.34,26.14,26.14,0,0,1,3.71-9.4,27,27,0,0,1,7-7.43,27.33,27.33,0,0,1,9.67-4.43,27.08,27.08,0,0,1,14.44.47,26.29,26.29,0,0,1,6.32,3,25.58,25.58,0,0,1,5.28,4.51,26.22,26.22,0,0,1,2.75-6.44,27.08,27.08,0,0,1,10.07-9.82A27,27,0,0,1,349.05,290.23Z"/><path class="cls-42" d="M379.05,304.84a24.82,24.82,0,0,0-2.81-4.95,25.3,25.3,0,0,0-7.32-6.66,25.92,25.92,0,0,0-9.4-3.43,26.56,26.56,0,0,0-10.47.43,27,27,0,0,0-6.9,2.68,27.08,27.08,0,0,0-10.07,9.82,26.22,26.22,0,0,0-2.75,6.44,25.58,25.58,0,0,0-5.28-4.51,26.29,26.29,0,0,0-6.32-3,27.08,27.08,0,0,0-14.44-.47,27.33,27.33,0,0,0-9.67,4.43,27,27,0,0,0-7,7.43,26.14,26.14,0,0,0-3.71,9.4,25.1,25.1,0,0,0,.26,10.34,21.38,21.38,0,0,0,3.86,8.37,26.79,26.79,0,0,0,6.56,5.88,89.27,89.27,0,0,0,8.8,4.91l1,.52C318.47,336.14,345.51,312,379.05,304.84Z"/></g></g></g></svg>