<svg xmlns="http://www.w3.org/2000/svg" xmlns:xlink="http://www.w3.org/1999/xlink" viewBox="0 0 551 551"><defs><style>.cls-1{isolation:isolate;}.cls-2{fill:#e2c8e1;}.cls-3{fill:#85d2dd;}.cls-102,.cls-103,.cls-104,.cls-14,.cls-27,.cls-29,.cls-31,.cls-33,.cls-39,.cls-4,.cls-41,.cls-42,.cls-43,.cls-46,.cls-49,.cls-5,.cls-52,.cls-53,.cls-56,.cls-58,.cls-59,.cls-60,.cls-61,.cls-67,.cls-71,.cls-75,.cls-76,.cls-79,.cls-83,.cls-85,.cls-87,.cls-91,.cls-92,.cls-94,.cls-96,.cls-97{mix-blend-mode:multiply;}.cls-4{fill:url(#linear-gradient);}.cls-6{fill:url(#linear-gradient-2);}.cls-7{fill:url(#linear-gradient-3);}.cls-8{fill:url(#linear-gradient-4);}.cls-9{fill:url(#linear-gradient-5);}.cls-10{fill:url(#linear-gradient-6);}.cls-11{fill:url(#linear-gradient-7);}.cls-12{fill:url(#linear-gradient-8);}.cls-13{fill:url(#linear-gradient-9);}.cls-14{fill:url(#linear-gradient-10);}.cls-15{fill:url(#linear-gradient-11);}.cls-16{fill:url(#linear-gradient-12);}.cls-17{fill:url(#linear-gradient-13);}.cls-18{fill:url(#linear-gradient-14);}.cls-19{fill:url(#linear-gradient-15);}.cls-20{fill:#9b9b9b;}.cls-21{fill:url(#linear-gradient-16);}.cls-22{fill:url(#linear-gradient-17);}.cls-23{fill:url(#linear-gradient-18);}.cls-24{fill:url(#linear-gradient-19);}.cls-25{fill:url(#linear-gradient-20);}.cls-26{fill:url(#linear-gradient-21);}.cls-27{fill:url(#linear-gradient-22);}.cls-28{fill:url(#linear-gradient-23);}.cls-29{fill:url(#linear-gradient-24);}.cls-30{fill:url(#linear-gradient-25);}.cls-31{fill:url(#linear-gradient-26);}.cls-32{fill:url(#linear-gradient-27);}.cls-33{fill:url(#linear-gradient-28);}.cls-34{fill:url(#linear-gradient-29);}.cls-35{fill:url(#linear-gradient-30);}.cls-36{fill:url(#linear-gradient-31);}.cls-37{fill:url(#linear-gradient-32);}.cls-38{fill:url(#linear-gradient-33);}.cls-39{fill:url(#linear-gradient-34);}.cls-40{fill:url(#linear-gradient-35);}.cls-41{fill:#bdbec0;}.cls-42{fill:url(#linear-gradient-36);}.cls-43{fill:url(#linear-gradient-37);}.cls-44{fill:url(#linear-gradient-38);}.cls-45{fill:url(#linear-gradient-39);}.cls-46{fill:url(#linear-gradient-40);}.cls-47{fill:url(#linear-gradient-41);}.cls-48{fill:url(#linear-gradient-42);}.cls-49{fill:url(#linear-gradient-43);}.cls-50{fill:url(#linear-gradient-44);}.cls-51{fill:url(#linear-gradient-45);}.cls-52{fill:url(#linear-gradient-46);}.cls-53{fill:url(#linear-gradient-47);}.cls-54{fill:url(#linear-gradient-48);}.cls-55{fill:url(#linear-gradient-49);}.cls-56{fill:url(#linear-gradient-50);}.cls-57{fill:url(#linear-gradient-51);}.cls-58{fill:url(#linear-gradient-52);}.cls-59{fill:url(#linear-gradient-53);}.cls-60{fill:url(#linear-gradient-54);}.cls-61{fill:url(#linear-gradient-55);}.cls-62{fill:#191918;}.cls-63{fill:url(#linear-gradient-56);}.cls-64{fill:url(#linear-gradient-57);}.cls-65{fill:url(#linear-gradient-58);}.cls-66{fill:url(#linear-gradient-59);}.cls-67{fill:url(#linear-gradient-60);}.cls-68{fill:url(#radial-gradient);}.cls-69{fill:url(#radial-gradient-2);}.cls-70{fill:url(#radial-gradient-3);}.cls-71{fill:url(#linear-gradient-61);}.cls-72{fill:url(#radial-gradient-4);}.cls-73{fill:url(#radial-gradient-5);}.cls-74{fill:url(#radial-gradient-6);}.cls-75{fill:url(#linear-gradient-62);}.cls-76{fill:url(#linear-gradient-63);}.cls-77{fill:url(#linear-gradient-64);}.cls-78{fill:url(#linear-gradient-65);}.cls-79{fill:url(#linear-gradient-66);}.cls-80{fill:url(#linear-gradient-67);}.cls-81{fill:url(#linear-gradient-68);}.cls-82{fill:url(#linear-gradient-70);}.cls-83{fill:url(#linear-gradient-71);}.cls-84{fill:url(#linear-gradient-72);}.cls-85{fill:url(#linear-gradient-73);}.cls-86{fill:url(#linear-gradient-74);}.cls-87{fill:url(#linear-gradient-75);}.cls-88{fill:url(#linear-gradient-76);}.cls-89{fill:url(#linear-gradient-77);}.cls-90{fill:url(#linear-gradient-78);}.cls-91{fill:url(#linear-gradient-79);}.cls-92{fill:url(#linear-gradient-80);}.cls-93{fill:url(#linear-gradient-81);}.cls-94{fill:url(#linear-gradient-82);}.cls-95{fill:url(#linear-gradient-83);}.cls-96{fill:url(#linear-gradient-84);}.cls-97{fill:url(#linear-gradient-85);}.cls-98{fill:url(#linear-gradient-86);}.cls-99{fill:url(#linear-gradient-87);}.cls-100{fill:url(#linear-gradient-88);}.cls-101{fill:#f5f6f6;}.cls-102{fill:url(#linear-gradient-89);}.cls-103{fill:url(#linear-gradient-90);}.cls-104{fill:url(#linear-gradient-91);}.cls-105{fill:#08aea9;}.cls-106{fill:#fff;}.cls-107{fill:#5ec6cc;}.cls-108{fill:#86d2d9;}.cls-109{fill:#033b39;}.cls-110{fill:#ededee;}.cls-111{fill:url(#linear-gradient-92);}.cls-112{fill:url(#linear-gradient-93);}.cls-113{fill:url(#linear-gradient-94);}.cls-114{fill:url(#linear-gradient-95);}.cls-115{fill:url(#linear-gradient-96);}.cls-116{fill:url(#linear-gradient-97);}.cls-117{fill:url(#linear-gradient-98);}.cls-118{fill:url(#linear-gradient-99);}</style><linearGradient id="linear-gradient" x1="149.48" y1="243.06" x2="218.01" y2="346.8" gradientUnits="userSpaceOnUse"><stop offset="0" stop-color="#fff"/><stop offset="0.24" stop-color="#e4e4e4"/><stop offset="0.54" stop-color="#c9c9c9"/><stop offset="0.8" stop-color="#b9b9b9"/><stop offset="1" stop-color="#b3b3b3"/></linearGradient><linearGradient id="linear-gradient-2" x1="135.36" y1="207.16" x2="133.46" y2="265.7" gradientUnits="userSpaceOnUse"><stop offset="0" stop-color="#898989"/><stop offset="0.14" stop-color="#9c9c9c"/><stop offset="0.73" stop-color="#e3e3e3"/><stop offset="1" stop-color="#fff"/></linearGradient><linearGradient id="linear-gradient-3" x1="97.68" y1="205.94" x2="95.78" y2="264.47" xlink:href="#linear-gradient-2"/><linearGradient id="linear-gradient-4" x1="63.88" y1="210.57" x2="63.88" y2="283.89" xlink:href="#linear-gradient-2"/><linearGradient id="linear-gradient-5" x1="87.91" y1="210.58" x2="87.91" y2="283.89" xlink:href="#linear-gradient-2"/><linearGradient id="linear-gradient-6" x1="125.51" y1="210.58" x2="125.51" y2="283.89" xlink:href="#linear-gradient-2"/><linearGradient id="linear-gradient-7" x1="178.09" y1="210.58" x2="178.09" y2="283.89" xlink:href="#linear-gradient-2"/><linearGradient id="linear-gradient-8" x1="135.08" y1="273.31" x2="135.08" y2="310.3" xlink:href="#linear-gradient-2"/><linearGradient id="linear-gradient-9" x1="260.08" y1="263.4" x2="260.08" y2="460.5" gradientUnits="userSpaceOnUse"><stop offset="0" stop-color="#69cbda"/><stop offset="1" stop-color="#0b7a85"/></linearGradient><linearGradient id="linear-gradient-10" x1="239.8" y1="347.15" x2="239.8" y2="385.27" xlink:href="#linear-gradient-2"/><linearGradient id="linear-gradient-11" x1="236.82" y1="214.31" x2="236.82" y2="292.66" xlink:href="#linear-gradient-2"/><linearGradient id="linear-gradient-12" x1="330.28" y1="214.31" x2="330.28" y2="292.66" xlink:href="#linear-gradient-2"/><linearGradient id="linear-gradient-13" x1="355.6" y1="214.31" x2="355.6" y2="292.66" xlink:href="#linear-gradient-2"/><linearGradient id="linear-gradient-14" x1="191.71" y1="188.06" x2="191.71" y2="320.43" xlink:href="#linear-gradient-2"/><linearGradient id="linear-gradient-15" x1="269.99" y1="247.07" x2="334.16" y2="247.07" xlink:href="#linear-gradient-2"/><linearGradient id="linear-gradient-16" x1="302.08" y1="271.84" x2="302.08" y2="309.45" xlink:href="#linear-gradient-2"/><linearGradient id="linear-gradient-17" x1="260.82" y1="262.45" x2="260.82" y2="314.56" xlink:href="#linear-gradient-2"/><linearGradient id="linear-gradient-18" x1="140.34" y1="162.74" x2="138.17" y2="255.2" gradientUnits="userSpaceOnUse"><stop offset="0" stop-color="#e52825"/><stop offset="1" stop-color="#e73c25"/></linearGradient><linearGradient id="linear-gradient-19" x1="352.05" y1="190.27" x2="350.11" y2="272.84" xlink:href="#linear-gradient-18"/><linearGradient id="linear-gradient-20" x1="143.3" y1="237.88" x2="130.99" y2="391.73" gradientUnits="userSpaceOnUse"><stop offset="0" stop-color="#13191b"/><stop offset="1" stop-color="#253137"/></linearGradient><linearGradient id="linear-gradient-21" x1="116.86" y1="368.85" x2="126.68" y2="368.85" xlink:href="#linear-gradient-18"/><linearGradient id="linear-gradient-22" x1="114.84" y1="376.85" x2="130.22" y2="367.02" xlink:href="#linear-gradient-18"/><linearGradient id="linear-gradient-23" x1="137.99" y1="521.68" x2="137.99" y2="591.14" gradientTransform="translate(25.12 -192.26) rotate(4.14)" gradientUnits="userSpaceOnUse"><stop offset="0" stop-color="#fdd1af"/><stop offset="1" stop-color="#faad78"/></linearGradient><linearGradient id="linear-gradient-24" x1="121.2" y1="371.78" x2="123.62" y2="345.11" gradientUnits="userSpaceOnUse"><stop offset="0" stop-color="#b0b0b0"/><stop offset="0.4" stop-color="#cdcdcd"/><stop offset="1" stop-color="#fff"/></linearGradient><linearGradient id="linear-gradient-25" x1="140" y1="365.42" x2="154.61" y2="365.42" xlink:href="#linear-gradient-18"/><linearGradient id="linear-gradient-26" x1="5386.58" y1="659.32" x2="5402.99" y2="659.18" gradientTransform="matrix(-1, -0.06, -0.06, 1, 5574.8, 50.71)" xlink:href="#linear-gradient-18"/><linearGradient id="linear-gradient-27" x1="140.56" y1="335.97" x2="140.56" y2="405.97" gradientTransform="matrix(1, 0, 0, 1, 0, 0)" xlink:href="#linear-gradient-23"/><linearGradient id="linear-gradient-28" x1="145.63" y1="341.53" x2="145.82" y2="376.4" xlink:href="#linear-gradient-24"/><linearGradient id="linear-gradient-29" x1="158.01" y1="278.75" x2="136.97" y2="263.8" gradientTransform="matrix(1, 0, 0, 1, 0, 0)" xlink:href="#linear-gradient-23"/><linearGradient id="linear-gradient-30" x1="165.21" y1="267.37" x2="146.28" y2="253.93" gradientTransform="matrix(1, 0, 0, 1, 0, 0)" xlink:href="#linear-gradient-23"/><linearGradient id="linear-gradient-31" x1="158.62" y1="264.58" x2="164.93" y2="264.58" xlink:href="#linear-gradient-20"/><linearGradient id="linear-gradient-32" x1="136.63" y1="258.33" x2="154.11" y2="289.02" xlink:href="#linear-gradient-24"/><linearGradient id="linear-gradient-33" x1="159.86" y1="264.79" x2="161.33" y2="264.79" gradientTransform="matrix(1, 0, 0, 1, 0, 0)" xlink:href="#linear-gradient-23"/><linearGradient id="linear-gradient-34" x1="183.73" y1="379.63" x2="133.9" y2="246.41" xlink:href="#linear-gradient-24"/><linearGradient id="linear-gradient-35" x1="130.25" y1="266.73" x2="130.25" y2="488.87" xlink:href="#linear-gradient-18"/><linearGradient id="linear-gradient-36" x1="134.34" y1="291.1" x2="134.34" y2="258.84" xlink:href="#linear-gradient-24"/><linearGradient id="linear-gradient-37" x1="135.03" y1="282.65" x2="112.68" y2="371.41" xlink:href="#linear-gradient-24"/><linearGradient id="linear-gradient-38" x1="133.7" y1="282.72" x2="133.7" y2="297.83" xlink:href="#linear-gradient-20"/><linearGradient id="linear-gradient-39" x1="115.77" y1="295.53" x2="135.99" y2="295.53" xlink:href="#linear-gradient-20"/><linearGradient id="linear-gradient-40" x1="124.12" y1="307.4" x2="126.73" y2="288.1" xlink:href="#linear-gradient-24"/><linearGradient id="linear-gradient-41" x1="126.45" y1="307.21" x2="130.36" y2="273.92" xlink:href="#linear-gradient-20"/><linearGradient id="linear-gradient-42" x1="136.52" y1="227.2" x2="139.88" y2="280.9" gradientTransform="matrix(1, 0, 0, 1, 0, 0)" xlink:href="#linear-gradient-23"/><linearGradient id="linear-gradient-43" x1="136.52" y1="227.2" x2="139.88" y2="280.9" xlink:href="#linear-gradient-24"/><linearGradient id="linear-gradient-44" x1="138.82" y1="303.53" x2="74.15" y2="189.95" gradientTransform="matrix(1, 0, 0, 1, 0, 0)" xlink:href="#linear-gradient-23"/><linearGradient id="linear-gradient-45" x1="128.52" y1="258.74" x2="120.55" y2="275.03" xlink:href="#linear-gradient-24"/><linearGradient id="linear-gradient-46" x1="154.7" y1="359.26" x2="114.42" y2="251.57" xlink:href="#linear-gradient-24"/><linearGradient id="linear-gradient-47" x1="162.54" y1="263.67" x2="153.31" y2="276.9" xlink:href="#linear-gradient-24"/><linearGradient id="linear-gradient-48" x1="138.31" y1="236.15" x2="133.86" y2="291.71" xlink:href="#linear-gradient-20"/><linearGradient id="linear-gradient-49" x1="133.49" y1="254.85" x2="138.61" y2="266.83" xlink:href="#linear-gradient-24"/><linearGradient id="linear-gradient-50" x1="138.32" y1="274.54" x2="137.25" y2="266.66" xlink:href="#linear-gradient-24"/><linearGradient id="linear-gradient-51" x1="346.95" y1="274.86" x2="342.67" y2="457.12" gradientUnits="userSpaceOnUse"><stop offset="0" stop-color="#d7da24"/><stop offset="1" stop-color="#a0a537"/></linearGradient><linearGradient id="linear-gradient-52" x1="455.17" y1="333.27" x2="495.51" y2="309.4" gradientUnits="userSpaceOnUse"><stop offset="0" stop-color="#9b9b9b"/><stop offset="1" stop-color="#fff"/></linearGradient><linearGradient id="linear-gradient-53" x1="514.76" y1="302.53" x2="489.93" y2="306.35" xlink:href="#linear-gradient-52"/><linearGradient id="linear-gradient-54" x1="234.46" y1="345.33" x2="191.24" y2="345.33" gradientUnits="userSpaceOnUse"><stop offset="0" stop-color="#9b9b9b"/><stop offset="0.02" stop-color="#a5a5a5"/><stop offset="0.1" stop-color="#c1c1c1"/><stop offset="0.19" stop-color="#d8d8d8"/><stop offset="0.3" stop-color="#e9e9e9"/><stop offset="0.42" stop-color="#f6f6f6"/><stop offset="0.59" stop-color="#fdfdfd"/><stop offset="1" stop-color="#fff"/></linearGradient><linearGradient id="linear-gradient-55" x1="236.74" y1="324.66" x2="224.22" y2="299.95" xlink:href="#linear-gradient-54"/><linearGradient id="linear-gradient-56" x1="220.32" y1="315.73" x2="186.58" y2="320.5" gradientUnits="userSpaceOnUse"><stop offset="0" stop-color="#f9ed25"/><stop offset="0.01" stop-color="#f9ee31"/><stop offset="0.06" stop-color="#fbf25c"/><stop offset="0.12" stop-color="#fcf583"/><stop offset="0.18" stop-color="#fdf8a5"/><stop offset="0.25" stop-color="#fdfac1"/><stop offset="0.33" stop-color="#fefcd8"/><stop offset="0.41" stop-color="#fefde9"/><stop offset="0.52" stop-color="#fffef6"/><stop offset="0.66" stop-color="#fffffd"/><stop offset="1" stop-color="#fff"/></linearGradient><linearGradient id="linear-gradient-57" x1="218.91" y1="305.77" x2="185.17" y2="310.55" xlink:href="#linear-gradient-56"/><linearGradient id="linear-gradient-58" x1="330.1" y1="262.63" x2="330.1" y2="299.39" gradientUnits="userSpaceOnUse"><stop offset="0" stop-color="#ecec9d"/><stop offset="1" stop-color="#dadc3a"/></linearGradient><linearGradient id="linear-gradient-59" x1="412.93" y1="262.63" x2="412.93" y2="299.39" xlink:href="#linear-gradient-58"/><linearGradient id="linear-gradient-60" x1="266.5" y1="317.27" x2="266.5" y2="363.85" xlink:href="#linear-gradient-52"/><radialGradient id="radial-gradient" cx="467.45" cy="1345.16" r="26.82" gradientTransform="translate(508.81 -1054.84) rotate(28.96)" gradientUnits="userSpaceOnUse"><stop offset="0" stop-color="#2a2b2e"/><stop offset="0.41" stop-color="#28292c"/><stop offset="0.64" stop-color="#202123"/><stop offset="0.83" stop-color="#141416"/><stop offset="0.99" stop-color="#020202"/><stop offset="1" stop-color="#010101"/></radialGradient><radialGradient id="radial-gradient-2" cx="266.5" cy="348.51" r="16.63" gradientUnits="userSpaceOnUse"><stop offset="0" stop-color="#e5e5e5"/><stop offset="0.43" stop-color="#e3e3e3"/><stop offset="0.59" stop-color="#dcdcdc"/><stop offset="0.7" stop-color="#d1d1d1"/><stop offset="0.79" stop-color="silver"/><stop offset="0.87" stop-color="#aaa"/><stop offset="0.94" stop-color="#8f9090"/><stop offset="1" stop-color="#707171"/><stop offset="1" stop-color="#6d6e6e"/></radialGradient><radialGradient id="radial-gradient-3" cx="467.45" cy="1345.16" r="16.17" gradientTransform="translate(508.81 -1054.84) rotate(28.96)" gradientUnits="userSpaceOnUse"><stop offset="0.25" stop-color="#e5e5e5"/><stop offset="1" stop-color="#6d6e6e"/></radialGradient><linearGradient id="linear-gradient-61" x1="447.46" y1="317.27" x2="447.46" y2="363.85" xlink:href="#linear-gradient-52"/><radialGradient id="radial-gradient-4" cx="625.78" cy="1257.54" r="26.82" xlink:href="#radial-gradient"/><radialGradient id="radial-gradient-5" cx="447.46" cy="348.51" r="16.63" xlink:href="#radial-gradient-2"/><radialGradient id="radial-gradient-6" cx="625.78" cy="1257.54" r="16.17" xlink:href="#radial-gradient-3"/><linearGradient id="linear-gradient-62" x1="364.25" y1="393.9" x2="364.25" y2="270.45" xlink:href="#linear-gradient-52"/><linearGradient id="linear-gradient-63" x1="390.38" y1="279.04" x2="390.38" y2="257.73" xlink:href="#linear-gradient-52"/><linearGradient id="linear-gradient-64" x1="291.98" y1="262.63" x2="291.98" y2="299.39" xlink:href="#linear-gradient-58"/><linearGradient id="linear-gradient-65" x1="467.01" y1="262.63" x2="467.01" y2="299.39" xlink:href="#linear-gradient-58"/><linearGradient id="linear-gradient-66" x1="368.07" y1="299.78" x2="370.97" y2="328.73" xlink:href="#linear-gradient-52"/><linearGradient id="linear-gradient-67" x1="507.77" y1="314.64" x2="493.21" y2="314.64" gradientUnits="userSpaceOnUse"><stop offset="0" stop-color="#d42027"/><stop offset="0.31" stop-color="#d22026"/><stop offset="0.49" stop-color="#c91f25"/><stop offset="0.64" stop-color="#bb1d22"/><stop offset="0.76" stop-color="#a81a1d"/><stop offset="0.88" stop-color="#8e1618"/><stop offset="0.98" stop-color="#6f1211"/><stop offset="1" stop-color="#691110"/></linearGradient><linearGradient id="linear-gradient-68" x1="510.16" y1="312.78" x2="473.27" y2="312.78" xlink:href="#linear-gradient-67"/><linearGradient id="linear-gradient-70" x1="337.75" y1="290.1" x2="343.49" y2="290.1" xlink:href="#linear-gradient-20"/><linearGradient id="linear-gradient-71" x1="340.53" y1="296.58" x2="340.82" y2="284.66" gradientUnits="userSpaceOnUse"><stop offset="0" stop-color="#e0e1e0"/><stop offset="0.41" stop-color="#e3e4e3"/><stop offset="0.7" stop-color="#ecedec"/><stop offset="0.96" stop-color="#fcfcfc"/><stop offset="1" stop-color="#fff"/></linearGradient><linearGradient id="linear-gradient-72" x1="343.65" y1="261.58" x2="348.13" y2="282.36" gradientTransform="matrix(1, 0, 0, 1, 0, 0)" xlink:href="#linear-gradient-23"/><linearGradient id="linear-gradient-73" x1="352.69" y1="295.7" x2="347.21" y2="272.43" xlink:href="#linear-gradient-24"/><linearGradient id="linear-gradient-74" x1="350.08" y1="293.89" x2="350.08" y2="283.44" xlink:href="#linear-gradient-24"/><linearGradient id="linear-gradient-75" x1="350.07" y1="301.92" x2="350.11" y2="284.76" xlink:href="#linear-gradient-71"/><linearGradient id="linear-gradient-76" x1="-531.85" y1="715.93" x2="-532.11" y2="733.75" gradientTransform="matrix(-0.98, -0.21, -0.21, 0.98, -24.42, -538.97)" xlink:href="#linear-gradient-18"/><linearGradient id="linear-gradient-77" x1="886.87" y1="731.8" x2="900.21" y2="731.8" gradientTransform="translate(-371.34 -612.31) rotate(11.99)" xlink:href="#linear-gradient-20"/><linearGradient id="linear-gradient-78" x1="359.97" y1="290.08" x2="359.91" y2="293.64" xlink:href="#linear-gradient-20"/><linearGradient id="linear-gradient-79" x1="358.08" y1="294.61" x2="359.51" y2="287.33" xlink:href="#linear-gradient-71"/><linearGradient id="linear-gradient-80" x1="901.84" y1="733.88" x2="875.38" y2="698.14" gradientTransform="translate(-371.34 -612.31) rotate(11.99)" xlink:href="#linear-gradient-24"/><linearGradient id="linear-gradient-81" x1="312.54" y1="286.13" x2="312.54" y2="294.84" xlink:href="#linear-gradient-20"/><linearGradient id="linear-gradient-82" x1="311.26" y1="286.22" x2="311.26" y2="294.82" xlink:href="#linear-gradient-24"/><linearGradient id="linear-gradient-83" x1="297.45" y1="270.65" x2="292.84" y2="466.9" xlink:href="#linear-gradient-51"/><linearGradient id="linear-gradient-84" x1="313.24" y1="282.9" x2="290.85" y2="301.92" xlink:href="#linear-gradient-24"/><linearGradient id="linear-gradient-85" x1="211.65" y1="373.14" x2="678.41" y2="373.14" xlink:href="#linear-gradient"/><linearGradient id="linear-gradient-86" x1="169.48" y1="207.75" x2="197.67" y2="182.41" gradientUnits="userSpaceOnUse"><stop offset="0" stop-color="#0c0f10"/><stop offset="1" stop-color="#e0e1e0"/></linearGradient><linearGradient id="linear-gradient-87" x1="313.98" y1="215.62" x2="288.75" y2="185.64" xlink:href="#linear-gradient-86"/><linearGradient id="linear-gradient-88" x1="246.58" y1="149.08" x2="246.58" y2="244.66" xlink:href="#linear-gradient-9"/><linearGradient id="linear-gradient-89" x1="96.6" y1="369.61" x2="214.63" y2="369.61" xlink:href="#linear-gradient"/><linearGradient id="linear-gradient-90" x1="31.97" y1="363.21" x2="150.01" y2="363.21" xlink:href="#linear-gradient"/><linearGradient id="linear-gradient-91" x1="160.18" y1="410.28" x2="396.42" y2="410.28" xlink:href="#linear-gradient"/><linearGradient id="linear-gradient-92" x1="268.78" y1="367.82" x2="274.86" y2="395.79" gradientUnits="userSpaceOnUse"><stop offset="0" stop-color="#69c9d2"/><stop offset="0.04" stop-color="#6ecbd3"/><stop offset="0.7" stop-color="#b5e3e4"/><stop offset="1" stop-color="#d1eceb"/></linearGradient><linearGradient id="linear-gradient-93" x1="618" y1="383.91" x2="618.88" y2="407.59" gradientTransform="matrix(-1, 0, 0, 1, 912.49, 0)" xlink:href="#linear-gradient-92"/><linearGradient id="linear-gradient-94" x1="610.8" y1="394.98" x2="611.3" y2="408.46" gradientTransform="matrix(-1, 0, 0, 1, 912.49, 0)" gradientUnits="userSpaceOnUse"><stop offset="0" stop-color="#7acdcd"/><stop offset="0.64" stop-color="#b5e2e1"/><stop offset="1" stop-color="#d1eceb"/></linearGradient><linearGradient id="linear-gradient-95" x1="244.67" y1="393.05" x2="245.24" y2="408.31" gradientTransform="translate(26.63)" gradientUnits="userSpaceOnUse"><stop offset="0.01" stop-color="#00888f"/><stop offset="0.49" stop-color="#6dbcbf"/><stop offset="0.84" stop-color="#b5dfdf"/><stop offset="1" stop-color="#d1eceb"/></linearGradient><linearGradient id="linear-gradient-96" x1="691.92" y1="387.13" x2="695.19" y2="402.18" gradientTransform="matrix(-1, 0, 0, 1, 898.06, 0)" xlink:href="#linear-gradient-92"/><linearGradient id="linear-gradient-97" x1="206.74" y1="395.79" x2="207.21" y2="408.52" gradientTransform="translate(-14.43)" xlink:href="#linear-gradient-92"/><linearGradient id="linear-gradient-98" x1="202.86" y1="401.75" x2="203.13" y2="408.99" gradientTransform="translate(-14.43)" xlink:href="#linear-gradient-94"/><linearGradient id="linear-gradient-99" x1="666.65" y1="400.7" x2="666.96" y2="408.91" gradientTransform="matrix(-1, 0, 0, 1, 871.44, 0)" xlink:href="#linear-gradient-95"/></defs><g class="cls-1"><g id="Layer_2" data-name="Layer 2"><g id="Layer_1-2" data-name="Layer 1"><circle class="cls-2" cx="275.5" cy="275.5" r="275.5"/><path class="cls-3" d="M260.18,216.05c-72.81,32.84-73.78-41.94-168.39-30.26S.65,384.52,194.29,398.71,379.75,348.6,347.56,319,299.75,198.21,260.18,216.05Z"/><path class="cls-3" d="M260.18,216.05c-72.81,32.84-73.78-41.94-168.39-30.26S.65,384.52,194.29,398.71,379.75,348.6,347.56,319,299.75,198.21,260.18,216.05Z"/><path class="cls-4" d="M260.18,216.05c-72.81,32.84-73.78-41.94-168.39-30.26S.65,384.52,194.29,398.71,379.75,348.6,347.56,319,299.75,198.21,260.18,216.05Z"/><g class="cls-5"><rect class="cls-6" x="110.04" y="229.13" width="46.64" height="79.47"/><rect class="cls-7" x="84.34" y="192.49" width="23.79" height="115.64"/><rect class="cls-8" x="55.32" y="207.72" width="17.13" height="89.47"/><rect class="cls-9" x="78.63" y="208.2" width="18.56" height="86.13"/><rect class="cls-10" x="117.65" y="197.25" width="15.71" height="99.94"/><rect class="cls-11" x="169.05" y="235.8" width="18.08" height="64.72"/><path class="cls-12" d="M217.7,302.88H211v-24.2H192v35.75h-3.73V272H168.9V256.19H149.6v45.6H142V269.64H123.1V252.1H99.33V273h-8v11.81H86.75v6.33H83.87V284.6h-5.2V258H64.54v22.13h-2V273H56.74v-6.9h-4V249.93H40.28v21.63H38.8V253l-7.4,4.42c-1.16,20.37,3.8,42.62,15.78,63.35H238.92V289.85H217.7Z"/></g><path class="cls-13" d="M198.08,263.87c53.53-34.26,83.51-85.66,177-67.1s76.39,204.87-117.77,204.87S76,338.11,110.27,311,161.52,287.27,198.08,263.87Z"/><path class="cls-14" d="M94.73,361.9c13.43,21.28,57.92,39.74,162.6,39.74,57.42,0,99.35-16.3,127.53-39.74Z"/><g class="cls-5"><polygon class="cls-15" points="248.74 271.83 245.01 271.83 245.01 236.09 226.03 236.09 226.03 260.29 219.32 260.29 219.32 247.26 198.1 247.26 198.1 292.69 219.32 292.69 219.32 283.75 226.03 283.75 226.03 304.97 239.06 304.97 239.06 309.07 256.56 309.07 256.56 300.13 275.55 300.13 275.55 229.39 248.74 229.39 248.74 271.83"/><rect class="cls-16" x="321.72" y="229.39" width="17.13" height="55.1"/><rect class="cls-17" x="345.17" y="232" width="20.85" height="60.32"/><path class="cls-18" d="M199.9,250V237.58a5.59,5.59,0,0,0-3.35-5.11V206.68c0-3.08-2.18-5.59-4.84-5.59s-4.84,2.51-4.84,5.59v25.79a5.59,5.59,0,0,0-3.35,5.11V250a5.58,5.58,0,0,0-4.28,5.41v68.14a5.6,5.6,0,0,0,5.58,5.58H198.6a5.6,5.6,0,0,0,5.58-5.58V255.45A5.58,5.58,0,0,0,199.9,250Z"/><path class="cls-19" d="M304.25,232.49c0-.12,0-.22,0-.35,0-5.78-1-15.41-2.19-15.41s-2.18,9.63-2.18,15.41v.35c-16.33,1.6-29.31,21-29.9,44.93h64.17C333.57,253.45,320.59,234.09,304.25,232.49Z"/><path class="cls-20" d="M282.55,277.42h3.08c.31-25,7.56-45.05,16.44-45.05C291.53,232.37,282.93,252.39,282.55,277.42Z"/><path class="cls-20" d="M302.07,232.37c8.9,0,16.14,20,16.45,45.05h3.07C321.22,252.39,312.63,232.37,302.07,232.37Z"/><path class="cls-20" d="M303.72,277.42c0-25-.76-45.05-1.65-45.05s-1.61,20-1.64,45.05Z"/><rect class="cls-21" x="261.49" y="277.05" width="81.17" height="46.91"/><path class="cls-22" d="M408.8,336c13.14-18.79,20-39.49,21.14-59.11h-5v-18H411.13V264h-1.49V220.14H395.79v50.94h-2.42V230.55h-1.85v-5.39c0-4.46-4.46-8.18-4.46-8.18l-.56-11.34H385L384.45,217S380,220.7,380,225.16v5.39h-1.86v38.52H375.9V215.12H364.56v48.52H361.4V219.58H348.2v29.56H346v-9.3l-10.79-4.27v20H323.51v36.91h-2.45V259.18h-15.4v37.28h-2.05V275.64l-12.45-7.44v18.59h-1.49V265.16H277.21v16.13h-4v6.89h-5.85v7.16h-1.95V273.22H251.28v26.61h-5.19v6.48H243.2V300h-4.55V288.17h-8V267.33H206.85v17.53H188V317h-7.61v-43c-7,3.56-13.24,6.27-19.29,8.77v4.38H150.52c-2.93,1.25-5.86,2.55-8.86,4v38.46h-3.72V293.91h-1.73A152.49,152.49,0,0,0,119,304.5v13.61h-6.71v-8.66l-2,1.53c-8.38,6.64-15.47,15.46-18.57,25Z"/></g><path class="cls-23" d="M140.15,153.16A18.14,18.14,0,0,0,122,171.31c0,10,18.15,35.22,18.15,35.22s18.14-25.2,18.14-35.22A18.15,18.15,0,0,0,140.15,153.16Zm0,29.8a11.77,11.77,0,1,1,11.77-11.78A11.77,11.77,0,0,1,140.15,183Z"/><path class="cls-24" d="M351.87,181.72a16.2,16.2,0,0,0-16.2,16.2c0,9,16.2,31.46,16.2,31.46s16.21-22.51,16.21-31.46A16.2,16.2,0,0,0,351.87,181.72Zm0,26.6a10.51,10.51,0,1,1,10.52-10.51A10.5,10.5,0,0,1,351.87,208.32Z"/><path class="cls-25" d="M145.6,244.11s-4.66,7.73-2,13.14,14.64,27.18,7.23,38.51-22.1,2.09-21.67-14.55-2-20.13-1.13-26.85,6.72-12.72,11.19-12.72,6.3,2,6.3,2"/><path class="cls-26" d="M126.43,369.25c.06-1.41.64-4.32-.19-5.89a.62.62,0,0,1-.76.31s.21-1.17-1.33-1.29a1.9,1.9,0,0,0-1.94,1.42,26.24,26.24,0,0,1-4.44,7.55c-1.7,2-1,3.86,2.21,4C122.63,375.43,126.41,369.68,126.43,369.25Z"/><path class="cls-27" d="M126.43,369.25c0-.57.14-1.37.2-2.24-.79,1.74-3.12,5.78-5.32,7.12-2,1.21-3.87-.19-4.44-.68,0,1.05,1.06,1.81,3.11,1.88C122.63,375.43,126.41,369.68,126.43,369.25Z"/><path class="cls-28" d="M128.45,336.51s-2.17,26.61-2.3,27.34-2.9,2.2-3.71.52-1.2-15.85-.83-23.31S126.22,334.72,128.45,336.51Z"/><path class="cls-29" d="M121.47,347.56c0,6.42.28,13.7.78,16.13a.49.49,0,0,0,0,.11,26.14,26.14,0,0,1-4.45,7.55,3.11,3.11,0,0,0-.89,2.1h0s0,.05,0,.08a1.36,1.36,0,0,0,.12.45.67.67,0,0,0,.06.12,1.31,1.31,0,0,0,.32.43l.09.07a2.16,2.16,0,0,0,.49.31l.09,0a4.87,4.87,0,0,0,.76.23l.18,0a5.76,5.76,0,0,0,1,.11,4.56,4.56,0,0,0,2.88-1.48,8.63,8.63,0,0,0-1-.15c-6.15-.56.65-6.8,1.3-9.79s-.27-9,.14-9.28a19,19,0,0,1,3.67.14c.21-2.46.43-5.13.64-7.67C125.55,347.19,123,347.4,121.47,347.56Z"/><path class="cls-30" d="M144.65,361.47a16.69,16.69,0,0,1,5.55,2.74c2.6,2,3.71.78,4.27,2.27s-.51,3.67-4,3.1-10.23-1.61-10.31-1.77-.3-5.62.21-6.22S144.44,361.07,144.65,361.47Z"/><path class="cls-31" d="M140,366.28a92,92,0,0,0,9.77,2.68c3.28.66,4.71-1.11,4.71-1.11l0-.05c-.3,1.16-1.55,2.19-4.11,1.78-3.53-.56-10.23-1.61-10.31-1.77A12.53,12.53,0,0,1,140,366.28Z"/><path class="cls-32" d="M143,334.21s1.8,27,1.71,27.74-2.64,2.29-3.58.65-4.54-15.75-4.7-23.3S140.61,332.56,143,334.21Z"/><path class="cls-33" d="M154.48,366.49c-2.92,2.88-10.52-.87-11.3-2.7s-2.38-10.34-1-10.77a6.3,6.3,0,0,0,1.94-1.09c-.24-3.72-.51-7.83-.72-11.16a18.71,18.71,0,0,0-3.6-.45,21,21,0,0,0-3,3.5,113.88,113.88,0,0,0,3.85,17.58.73.73,0,0,0-.32.19c-.51.6-.3,6.08-.21,6.22s6.78,1.21,10.31,1.77a6.15,6.15,0,0,0,.81.08h.17a5,5,0,0,0,.68,0h0a5.15,5.15,0,0,0,.64-.13l.06,0A2.3,2.3,0,0,0,154.48,366.49Z"/><path class="cls-34" d="M149.92,287.11c-2.09,0-2.3,0-13.69-21.26-.87-1.63-.23-5,1.4-5.85s5.21.19,6.08,1.82c3.13,5.83,4.79,13.26,7.07,16.78,0,0,7.95-8.35,9.33-10.7a1.82,1.82,0,0,1,2.5-.66c.87.51.47,1.63,0,2.5C157.11,279.1,151.8,287.11,149.92,287.11Z"/><path class="cls-35" d="M159.85,267.3s2.87-4.24,3.39-5.45,1.45-2.48,1.94,1.76-1.65,3.48-2.91,6.65C161.48,272.24,159.39,268,159.85,267.3Z"/><polygon class="cls-36" points="164.1 259.66 158.63 268.4 159.27 269.51 164.93 260.47 164.1 259.66"/><path class="cls-37" d="M144.15,281s1.13-.05,3.22-2.19,2.33-3.31,2.33-3.31-3.59-9.14-4.42-11.19-2.24-4.19-3.83-4.19-4.89,2.61-2.7,9.18A61,61,0,0,0,144.15,281Z"/><path class="cls-38" d="M161.33,263.94a3.41,3.41,0,0,1-.9,1.73c-.63.41-.75-.77-.31-1.31S161.31,263.71,161.33,263.94Z"/><path class="cls-39" d="M146.81,274.92c1.17-4.29,0-4.85-1.3-7.41a45.9,45.9,0,0,1-2.25-6.49,2.62,2.62,0,0,0-1.81-.92h-.13a5,5,0,0,0-3.69-.11c-1.63.88-2.27,4.22-1.4,5.85,1.6,3,3,5.54,4.17,7.75a60.61,60.61,0,0,0,3.75,7.38,1.43,1.43,0,0,0,.29-.07c3.53,6.19,4.09,6.2,5.48,6.2.66,0,1.77-1,3.15-2.74C149.41,285.16,145.8,278.67,146.81,274.92Z"/><path class="cls-40" d="M142.34,285.41c-2.6-5.7,5.28-11.38,3.77-14.83-3.35-7.69-3-9.74-3.91-10.44A13,13,0,0,0,131.39,258s-8.26,0-9,6.57,5.6,16.28,1.82,23.5S119,317,116.61,329.88a137.94,137.94,0,0,0-2.42,22.94s31.54,3.33,30.58-4.29C143.46,338.27,149.61,301.35,142.34,285.41Z"/><path class="cls-41" d="M140.26,286.52l-1.1.17a40,40,0,0,0,1,9.81c1.43,4.9,1.63,38.38.27,55.9.4-.11.78-.23,1.13-.36,1.37-17.85,1.14-50.74-.35-55.86A39.46,39.46,0,0,1,140.26,286.52Zm-11.91,8.71c-1,2.76-3.56,43.76-4.25,58.24l1.07,0c.68-15,3.32-55.54,4.2-57.86.56-1.46.81-5.41.92-9.17l-1.08-.21C129.09,290.17,128.85,293.94,128.35,295.23Zm-1.68-9.6-1.08-.34a24.57,24.57,0,0,1-1.45,7.79c-2.09,4.62-6.75,44.38-7.48,60l1.09.08c.73-16,5.54-55.5,7.39-59.58A24.71,24.71,0,0,0,126.67,285.63Zm5.87,11.86c-.13,1.08-.85,40.14-1.15,56l1.1,0c.4-21.89,1-54.78,1.14-55.81.09-.7.19-5.92.25-10.78l-1.09-.08C132.72,291.8,132.62,296.87,132.54,297.49Zm4.53-10.64c-.37,0-.73,0-1.11,0a67.27,67.27,0,0,0,.4,10.18c.56,2.66.35,40.19-.39,56.11l1.12-.13c.76-16.23.94-53.39.34-56.22A67.94,67.94,0,0,1,137.07,286.85Zm8,8.86,0-.16a31.52,31.52,0,0,1-1.33-6.42,30,30,0,0,0-1.08-3.08l-.24.07A35.69,35.69,0,0,0,144,295.9c.93,2.85,1.63,9.61,2,18.08A117.63,117.63,0,0,0,145.06,295.71Z"/><path class="cls-42" d="M146.11,270.58c-.22-.5-.41-1-.6-1.43a8.84,8.84,0,0,1-1.18,6.08c-.68,1-2.22,1.36-3.35,1.68a2.48,2.48,0,0,1-2.43-.9c-.14-1.2-.59-2.17-1.71-2.4h-.05c-.37-1.41-.89-3.48-1.22-4.81.75,2.44,2.26,3.56,5.37,3.09,6.11-.93,2.13-5.95,1.44-9-.43-1.87-.66-2.62-.68-3.06a13.11,13.11,0,0,0-10.31-1.8s-8.26,0-9,6.57c-.61,5.73,4.08,13.82,2.81,20.58a53.67,53.67,0,0,0,17,.05C140,279.57,147.6,274,146.11,270.58Zm-12.06-5.41s0,.09,0,.14l-1.4-2.65-1,1a5.81,5.81,0,0,0-.33-1.64S133.29,261.91,134.05,265.17Zm-3.39,4.16c.44-.88.54-.65.77-1.4.61-.52,1.39,4.3,1.93,7-1.46.41-3,.46-3.6,0C128.57,274,129.47,271.7,130.66,269.33Zm2.59,13.61c.65-.19,4.84-1.45,5.17-3.73a4.74,4.74,0,0,0,0-.55,7.93,7.93,0,0,1,3.92-.94c-.15.35-.78,2.75-1.3,3.82S132.6,283.12,133.25,282.94Z"/><path class="cls-43" d="M142.34,285.41a7,7,0,0,1-.35-1,29.19,29.19,0,0,1-7.94,1.84,42.73,42.73,0,0,1-8.9-.7,10.54,10.54,0,0,1-.9,2.52c-3.73,7.13-5.22,28.94-7.64,41.81a137.94,137.94,0,0,0-2.42,22.94s4.11.43,9.31.63c.58-14.61.69-43.9,1.64-46.51,1.12-3.07,7.62.71,9.72-1.88s1.54-14.2,3.84-14.62a18.14,18.14,0,0,0,4.8-2A26.87,26.87,0,0,0,142.34,285.41Z"/><path class="cls-44" d="M125.28,282.1c0,.33-1,4.24-1,4.89,0,0,3.2,1.7,9.91,1.63s8.67-1.95,9-2.72-1.05-1.26-.7-3-4,1.26-8.46.91A44.47,44.47,0,0,1,125.28,282.1Z"/><path class="cls-45" d="M133.58,304.52A113.65,113.65,0,0,1,121,302.75c-4.85-1.12-5.13-.93-5.22-1.68s3.82-13.52,4.38-14.36,15.2,1.49,15.76,1.68-2,15.1-2.24,15.76"/><path class="cls-46" d="M133.58,304.52l.09-.37a12.52,12.52,0,0,0,.27-1.24c-3.06,0-6.41-.45-8.34-1.42-2.6-1.3,2-12.67,2.62-14.3-3.86-.51-7.78-.9-8.07-.48-.56.84-4.47,13.62-4.38,14.36s.37.56,5.22,1.68A113.65,113.65,0,0,0,133.58,304.52Z"/><path class="cls-47" d="M133.58,304.52a1.09,1.09,0,0,1-.26,0,1.12,1.12,0,0,1-.83-1.35c0-.11,2.59-10.9,2.67-17.28.11-8.27-3.11-23.52-5.78-24.91a2.61,2.61,0,0,0-2.24-.28,4.31,4.31,0,0,0-1.92,2.36,1.11,1.11,0,1,1-2.12-.69,6.45,6.45,0,0,1,3.2-3.74,4.74,4.74,0,0,1,4.11.36c4.46,2.32,7.08,20.06,7,26.93-.08,6.63-2.62,17.32-2.73,17.77A1.12,1.12,0,0,1,133.58,304.52Z"/><path class="cls-48" d="M140.38,259a12.51,12.51,0,0,0-2.31-.89,6.07,6.07,0,0,1,.1-3,7.27,7.27,0,0,0,2.68-.41c3.35-1.26,5.4-10.58,5.4-10.58s-7.18-5.13-10.34-1.54a14.89,14.89,0,0,0-3.45,9.8c0,.81.26,3.81-.39,5.36-.27,0-.54.1-.78.16,0,0-1,.21-1.51.25a8.5,8.5,0,0,1,4.59,5.45c1.58,5.46,1.86,7.6,6.75,7.09s1.59-5.46.84-7.23C141.5,262.33,141,260.49,140.38,259Z"/><path class="cls-49" d="M140.38,259a12.51,12.51,0,0,0-2.31-.89,6.07,6.07,0,0,1,.1-3,7.27,7.27,0,0,0,2.68-.41c3.35-1.26,5.4-10.58,5.4-10.58s-7.18-5.13-10.34-1.54a14.89,14.89,0,0,0-3.45,9.8c0,.81.26,3.81-.39,5.36-.27,0-.54.1-.78.16,0,0-1,.21-1.51.25a8.5,8.5,0,0,1,4.59,5.45c1.58,5.46,1.86,7.6,6.75,7.09s1.59-5.46.84-7.23C141.5,262.33,141,260.49,140.38,259Zm0,8.4a1.6,1.6,0,0,1-.31,0,8,8,0,0,1,.24-3.26,2.71,2.71,0,0,0-.6,1.4,4.84,4.84,0,0,0-.08,1,2.65,2.65,0,0,0-.45-.62c-.91-.94-1.07-.92-1.07-.92a9.53,9.53,0,0,1,1.35,2.35c-1.58-.28-2.07-1.82-2.66-3.87a8.82,8.82,0,0,0-2.54-4.49c-1.15-1.15,1.05-4.86,1.09-7.37s-1.54-4.23-.22-6.54,4.34,0,4.34,0,3.6.35,4.48.91-.7,6.29-2.87,7.34-3,1.18-3.92.91a18.51,18.51,0,0,1-1.85-.74,10,10,0,0,1,1.75,2.38,26,26,0,0,1,1.16,4.17c.06.84.24-1.2.24-1.2a10.64,10.64,0,0,1,1.08,2.38C140.24,263.14,142.72,267.2,140.38,267.41Z"/><path class="cls-50" d="M136.68,274.6c-.64-.52-1.44.28-1.89,1.19a4,4,0,0,1-1.68,1.4,1.5,1.5,0,0,0-.34.16c-1.75,1.07-11.55,3.58-11.55,3.58,1.62-4.16,5.13-8.74,8.4-14.73,1.39-2.56.76-5.29-1.55-6.43-1.66-.82-4.78,1.18-5.68,2.8-12.5,22.47-8.51,23.58-7.18,25.14,1.11,1.31,12.83-4.13,18.21-7.19,1.66-.51,3.55,1.46,4.13-.29S137.31,275.13,136.68,274.6Z"/><path class="cls-51" d="M114.6,277.86s6.62,1.86,7.09,1.72,8.31-12.06,8.8-15.39c.52-3.64-2.53-6.13-5.77-4.3S116.38,273.29,114.6,277.86Z"/><path class="cls-52" d="M137.55,280.23a6,6,0,0,0,.16-2.32c-1.5,1.07-4.62.81-8.79,2.74-4.83,2.24-11.47,3.71-11.75,2.8s3.07-8.25,6-14.82c2.57-5.75,5-8.29,5.54-8.83a3.82,3.82,0,0,0-4,.09c-3.29,1.85-8.34,13.4-10.12,18l.35.09c-2.84,7.82-.66,8.69.26,9.76,1.1,1.31,12.83-4.13,18.21-7.19C135.08,280,137,282,137.55,280.23Z"/><path class="cls-53" d="M155.25,276.32c2.38-3,5.64-7.13,6.9-9.74a32,32,0,0,0,2.46-6.42l-.51-.5-2.82,4.5.05-.22c0-.23-.77-.11-1.21.42s-.33,1.54.18,1.36l-1.68,2.68.51.87c-2.55,3.24-8.35,9.33-8.35,9.33S152.88,279.3,155.25,276.32Z"/><path class="cls-54" d="M146.46,244.65c-1,1.79-5.17-.36-7.9,1.11s-3.1-.76-3.82.35c-1,1.59,1,5.67-.46,9.23s-3.76,3-5.64,2.66-.29-6.22,1.81-12c1.76-4.79,6.55-10.6,11.33-7.48C145.21,240.8,147.12,243.52,146.46,244.65Z"/><path class="cls-55" d="M140.38,259c-.31-.16-.64-.29-1-.42.58,1,.53,2.61,1.14,3.57,1.39,2.2,2.8,6.26-.39,6.5s-3.81-5.35-5.28-7.79a7.27,7.27,0,0,0-3.62-3c-.11,0-1.05.2-1.49.24a8.5,8.5,0,0,1,4.59,5.45c1.58,5.46,1.86,7.6,6.75,7.09s1.59-5.46.84-7.23C141.5,262.33,141,260.49,140.38,259Z"/><path class="cls-56" d="M140.38,259l-.31-.14a31.46,31.46,0,0,0,1.48,4.68c.69,1.95,3.12,5.68-1,6.29s-4.85-4.76-6-7.88a7.54,7.54,0,0,0-3.95-3.94,7.15,7.15,0,0,1-.78.12,8.5,8.5,0,0,1,4.59,5.45c1.58,5.46,1.86,7.6,6.75,7.09s1.59-5.46.84-7.23C141.5,262.33,141,260.49,140.38,259Z"/><path class="cls-57" d="M189.86,357.5H446.11c56.34,0,53.64-1.91,59.84-14.32s-2.86-35.33-6.69-44.41S455.82,266,443.4,261.69s-102.65-7.8-115.55-2.07-57.77,29.13-63.5,33.43c-7.32.07-55.63-2.63-72.58,20.53C174.33,337.41,188,355.83,189.86,357.5Z"/><path class="cls-58" d="M507.92,329.23c-.91-11.41-6-24.21-8.66-30.46a11.32,11.32,0,0,0-1.83-2.75,6.76,6.76,0,0,0-.76,0l-17.17,0c-4.75,0-12.7,0-12.7,6.71,0,0,0,1.88,0,6.18,0,6.15,4,8.91,7.14,11.13a24.46,24.46,0,0,1,5.2,4.46c2.94,3.56,8.91,5.21,18.79,5.21,2.24,0,4.64-.07,7.55-.24Z"/><path class="cls-59" d="M476.35,279.59l-14.7,4.49s7.64,4.62,6.53,21.17,6.52,13.53,10.51,22.13c3.29,7.11,18.65,5.72,29.37,5-.07-12.14-5.92-26.81-8.8-33.64C497.45,294.47,487.56,286.86,476.35,279.59Z"/><path class="cls-60" d="M227.94,345.33a9.23,9.23,0,0,0-9.22-9.22H188a9.08,9.08,0,0,0-5,1.49,32.36,32.36,0,0,0,4.62,16.93l.36,0h30.74A9.23,9.23,0,0,0,227.94,345.33Z"/><path class="cls-61" d="M211.05,331.83s5.5-.48,11.38-6.84,10.68-12.9,22.13-16.4,20.06-6.36,20.06-6.36l12.94-9.18L267,291.32a31.72,31.72,0,0,0-2.66,1.73c-7.32.07-55.63-2.63-72.58,20.53a43.91,43.91,0,0,0-8.23,18.25Z"/><path class="cls-62" d="M214.42,352.65H183.69a7.32,7.32,0,1,1,0-14.63h30.73a7.32,7.32,0,1,1,0,14.63Z"/><path class="cls-63" d="M188.59,324.67s1-7.39,8-10,7.4-1.48,15-2.83,9.49-2.83,9.49-2.83-3.08,8.74-8.63,12.81S197.21,324.67,188.59,324.67Z"/><path class="cls-64" d="M200.91,310.63a34.64,34.64,0,0,1,12.19-6.78c7.63-2.46,16.63-2.09,16.63-2.09s-9.73,9.85-28.09,8.87"/><path class="cls-65" d="M291.09,292.32a217.6,217.6,0,0,1,25.15-16.71c12.1-7,15.38-11.94,29.44-11.94h23.56l-3.66,23.56s-1.76,5.09-8.28,5.09S287.65,294.92,291.09,292.32Z"/><path class="cls-66" d="M382.12,263.75a4,4,0,0,0-3.88,3.92l-.34,19.26a3.75,3.75,0,0,0,3.75,3.82h64c2.1,0,2.94-1.48,1.86-3.28a55.25,55.25,0,0,0-12.21-13.6c-7.48-5.72-14.94-8.57-20.53-9.38C405.74,263.17,382.12,263.75,382.12,263.75Z"/><path class="cls-67" d="M296.82,348.51a30.32,30.32,0,1,0-59.29,9h57.93A30.33,30.33,0,0,0,296.82,348.51Z"/><path class="cls-68" d="M290,361.5A26.82,26.82,0,1,0,253.51,372,26.81,26.81,0,0,0,290,361.5Z"/><path class="cls-69" d="M283.13,348.51a16.64,16.64,0,1,0-16.63,16.64A16.63,16.63,0,0,0,283.13,348.51Z"/><path class="cls-70" d="M267.65,346.42c1.56.86,5.18-2.73,8.1-8,.51-.92,1-1.82,1.36-2.7a17,17,0,0,0-2.56-1.75,17.34,17.34,0,0,0-2.84-1.24c-.53.81-1.06,1.67-1.57,2.58C267.22,340.59,266.11,345.56,267.65,346.42Zm-2.38,0c1.52-.91.22-5.84-2.89-11-.55-.91-1.11-1.73-1.67-2.52a16.7,16.7,0,0,0-5.28,3.18c.43.86.91,1.75,1.45,2.64C260,343.93,263.75,347.38,265.27,346.46Zm3.62,2c0,1.77,4.95,3.12,11,3,1.05,0,2.06-.08,3-.18a16.72,16.72,0,0,0-.1-6.15c-1-.07-2-.11-3-.09C273.72,345.17,268.85,346.7,268.89,348.47Zm-4.78.09c0-1.77-4.95-3.12-11-3-1.06,0-2.06.08-3,.18a16.72,16.72,0,0,0,.11,6.15c1,.06,2,.1,3,.08C259.27,351.85,264.14,350.33,264.11,348.56Zm3.62,2c-1.52.91-.23,5.85,2.88,11,.55.91,1.11,1.73,1.68,2.52a16.55,16.55,0,0,0,5.27-3.17c-.43-.87-.91-1.75-1.45-2.65C273,353.1,269.25,349.65,267.73,350.56Zm-2.39,0c-1.55-.86-5.17,2.73-8.1,8-.5.92-.95,1.82-1.35,2.71a16,16,0,0,0,2.56,1.74,16.19,16.19,0,0,0,2.84,1.24c.53-.8,1.06-1.66,1.57-2.59C265.78,356.44,266.89,351.46,265.34,350.6Z"/><path class="cls-71" d="M477.78,348.51a30.32,30.32,0,0,0-60.64,0,30,30,0,0,0,1.36,9h57.92A30,30,0,0,0,477.78,348.51Z"/><path class="cls-72" d="M470.93,361.5A26.82,26.82,0,1,0,434.48,372,26.82,26.82,0,0,0,470.93,361.5Z"/><path class="cls-73" d="M464.09,348.51a16.63,16.63,0,1,0-16.63,16.64A16.62,16.62,0,0,0,464.09,348.51Z"/><path class="cls-74" d="M448.62,346.42c1.55.86,5.17-2.73,8.09-8q.77-1.38,1.35-2.7a16.32,16.32,0,0,0-2.54-1.75,17.44,17.44,0,0,0-2.85-1.24c-.53.81-1.06,1.67-1.57,2.58C448.18,340.59,447.07,345.56,448.62,346.42Zm-2.39,0c1.51-.91.22-5.84-2.88-11-.55-.91-1.12-1.73-1.68-2.52a16.77,16.77,0,0,0-5.27,3.18c.42.86.91,1.75,1.45,2.64C441,343.93,444.71,347.38,446.23,346.46Zm3.62,2c0,1.77,4.95,3.12,11,3,1.05,0,2.06-.08,3-.18a16.72,16.72,0,0,0-.11-6.15c-1-.07-2-.11-3-.09C454.68,345.17,449.81,346.7,449.85,348.47Zm-4.78.09c0-1.77-4.95-3.12-11-3-1,0-2.06.08-3,.18a16.51,16.51,0,0,0,.11,6.15c1,.06,2,.1,3,.08C440.23,351.85,445.11,350.33,445.07,348.56Zm3.63,2c-1.52.91-.23,5.85,2.88,11,.55.91,1.1,1.73,1.67,2.52a16.45,16.45,0,0,0,5.27-3.17c-.42-.87-.9-1.75-1.44-2.65C454,353.1,450.21,349.65,448.7,350.56Zm-2.39,0c-1.56-.86-5.18,2.73-8.1,8-.51.92-1,1.82-1.35,2.71a16.36,16.36,0,0,0,2.55,1.74,16.87,16.87,0,0,0,2.84,1.24c.53-.8,1.07-1.66,1.57-2.59C446.75,356.44,447.85,351.46,446.31,350.6Z"/><path class="cls-75" d="M310.3,273.75,271.41,301c-1,.66-6,4.09-5.1,6.94.56,1.83,3,2.69,7.86,2.61a32,32,0,0,1,24.6,12.26c4.78,6.18,9.41,17.11,5.77,34.74h1.95c3.63-18.1-1.22-29.45-6.21-35.91a33.48,33.48,0,0,0-25.87-13h-.61c-5.12,0-5.62-1.13-5.66-1.26-.28-1,2.05-3.29,4.34-4.81l38.92-27.21a1,1,0,1,0-1.1-1.57Zm134.6,2.18a1,1,0,0,0-1.35.16,1,1,0,0,0,.16,1.34c18.78,14.77,17.11,26.34,16.16,29.54-.41,1.37-4.19,1.82-8.57,2.34-7.34.88-18.43,2.21-29,9.07-14.16,9.18-14.11,30-13.35,39.12h1.95c-.7-8.64-.77-28.95,12.44-37.52,10.19-6.61,21-7.91,28.19-8.77,5.65-.68,9.39-1.13,10.16-3.7C462.74,304,464.62,291.45,444.9,275.93Zm-71-11.9a1,1,0,0,0-1,.87c-.08.76-5.87,59.86-9,92.6h1.92c3.11-32.75,8.88-91.65,9-92.42A1,1,0,0,0,373.89,264Z"/><path class="cls-76" d="M464.81,272.51c-8.72-5.09-16.88-9.25-21.41-10.82-12.42-4.3-102.65-7.8-115.55-2.07-2.74,1.22-6.94,3.24-11.9,5.71l2,1.88s9.7-5.72,15.11-6.2,41.7-.8,64.31-.8,39,3.82,46,9.39C447.67,273,457.73,273,464.81,272.51Z"/><path class="cls-77" d="M299.37,278.56c13.8-9.71,21.64-11.78,20.05-14.8,0,0-.08-.06-.11-.09-17.94,8.8-50.17,25.78-55,29.38h13.21S285.62,288.22,299.37,278.56Z"/><path class="cls-78" d="M444.42,268c-2.1,0-2.38.95-.63,2.11,0,0,2,1.3,5.1,3.7,15.52,11.86,15.83,13.44,15.83,13.44a13.14,13.14,0,0,0,7.92,3.11h18.74c-8.87-7.26-23.27-16.26-34.63-22.36Z"/><path class="cls-79" d="M500.65,302.13a80.58,80.58,0,0,0-18.1-2.38c-23.34,0-55.6,5.34-104.61,10.43s-89.57,2-118.46,8.86c-12.61,3-23.3,15.15-23.3,29.47a30.33,30.33,0,0,0,1.35,9H446.11c56.34,0,53.64-1.91,59.84-14.32C511.5,332.08,504.85,312.62,500.65,302.13Z"/><path class="cls-80" d="M504.22,312h-9.38a2.62,2.62,0,1,0,0,5.23h10.91C505.28,315.47,504.76,313.72,504.22,312Z"/><path class="cls-81" d="M494.65,319.43a4.78,4.78,0,0,1,0-9.55h8.85c-1.32-3.92-2.7-7.41-3.78-10a8.52,8.52,0,0,0-.87-.08l-16.3,0c-5.25,0-9.74,0-9.74,2.81,0,0,0,1.87,0,6.26,0,6.74,6.42,7,11.47,13.16,3.46,4.2,14.69,4.08,23.17,3.58-.31-2-.74-4.1-1.22-6.13Z"/><path class="cls-65" d="M291.09,292.32a217.6,217.6,0,0,1,25.15-16.71c12.1-7,15.38-11.94,29.44-11.94h23.56l-3.66,23.56s-1.76,5.09-8.28,5.09S287.65,294.92,291.09,292.32Z"/><path class="cls-82" d="M343.49,292.69c0-3-.06-5.35-.06-5.35a11.1,11.1,0,0,0-5.3,4.61,7.13,7.13,0,0,0-.38.91Z"/><path class="cls-83" d="M343.43,287.34a11.1,11.1,0,0,0-5.3,4.61,7.13,7.13,0,0,0-.38.91l5.74-.17C343.51,289.72,343.43,287.34,343.43,287.34Z"/><path class="cls-84" d="M340.27,291.28a8.33,8.33,0,0,0-.31,1.52c8.59-.26,15.42-.48,17.34-.48a10.4,10.4,0,0,0,3.3-.51c-1.43-3.12-4-4.43-7.21-5,.15-1.2-.1-3.73.12-6.15a14.3,14.3,0,0,0-.25-6.76c-1.31-4.52-10.32-6.51-12.27-2.72,0,0,0,12.67,3.77,13.57a12.88,12.88,0,0,0,2.94.35,8.14,8.14,0,0,1-.22,1.31C343,286.68,341.13,288.7,340.27,291.28Z"/><path class="cls-85" d="M353.51,280.63a14.34,14.34,0,0,0-.25-6.77,4.54,4.54,0,0,0-.63-1.29c-1.77,0-12.85-.05-11.08,1.89,1.92,2.11,8,.21,7.81,1.79s1,4.94,1.58,6.86a7.09,7.09,0,0,1,.28,1.48,10.32,10.32,0,0,1-3.49.48,8.46,8.46,0,0,0,3.52.14c0,.89-.1,1.52,0,1.66a23.5,23.5,0,0,0,3.64.86s.2.62-2.27,1.71-7.31-1-7.31-1l-1.58,2.14.48,2.1c5.32-.16,9.59-.29,11.87-.34l1.37-.9,1.58-2a10.23,10.23,0,0,0-5.61-2.64C353.55,285.58,353.29,283.06,353.51,280.63Z"/><path class="cls-86" d="M357.48,288s-3.24,4.06-8.16,3.13c-5.86-1.1-4.22-4.76-4.22-4.76a10.22,10.22,0,0,0-5.67,6.49c8.83-.26,15.91-.49,17.87-.49a10.17,10.17,0,0,0,3.43-.56C359.58,288.17,357.48,288,357.48,288Z"/><path class="cls-87" d="M357.48,288s-3.24,4.06-8.16,3.13c-5.86-1.1-4.22-4.76-4.22-4.76a10.24,10.24,0,0,0-5.65,6.49h0c.85-1.54,2.56-4.39,3.66-4.66,1.42-.35.14,3.72,5.08,4.4l4.38-.13c3.63-.63,4.92-2.41,4.92-2.41s-.24,1-.52,2.31h.29a10.17,10.17,0,0,0,3.43-.56C359.58,288.17,357.48,288,357.48,288Z"/><path class="cls-88" d="M338.75,272.43a6.08,6.08,0,0,0,5.29,2.49,28.84,28.84,0,0,0,6.5-.84,9.52,9.52,0,0,0-.36,1.83c.08.28,2-1.35,2.41-.2.8,2.25-1.42,2.56-1.41,3.27.1,5.15,2.32,5.09,2.35,5.61a30.1,30.1,0,0,1,2.36-7.49c1.89-4.13,0-8.12-3.64-9.3-4-1.27-6.38-.16-8.39-1.3C338.2,263.33,336.16,268.51,338.75,272.43Z"/><path class="cls-89" d="M345.1,286.32s-.41,3.49,4.39,4.21,7.3-3,8.19-2.51c.35.22-2.54,4.51-8.18,3.63S343.42,286.42,345.1,286.32Z"/><path class="cls-90" d="M359.35,289.06c-.15-.1-1.07.89-1.68,3.24a9.4,9.4,0,0,0,4.54-1.23A12.75,12.75,0,0,0,359.35,289.06Z"/><path class="cls-91" d="M359.35,289.06c-.15-.1-1.07.89-1.68,3.24a10.54,10.54,0,0,0,1.76-.19c0-1.39,0-2.51,0-3Z"/><path class="cls-92" d="M352.25,267.8c-4-1.27-6.38-.16-8.39-1.3-2.52-1.41-4.32-1.16-5.32-.11a4.78,4.78,0,0,1,4.61.36c2.9,1.61,9.88.09,11.12,4,1,3.3-1.72,9-1.95,12.67.59.76,1.19.88,1.21,1.15a30.1,30.1,0,0,1,2.36-7.49C357.78,273,355.89,269,352.25,267.8Z"/><path class="cls-93" d="M313.19,288.11c-.74-1.39-2.16-2.09-3.18-1.55s-1.22,2.11-.49,3.5l1.81,3.38,4.66-.07Z"/><path class="cls-94" d="M313.44,293.41l-3.18-6.94a2.5,2.5,0,0,0-.25.09c-1,.53-1.22,2.11-.49,3.5l1.81,3.38Z"/><path class="cls-95" d="M290.77,290.59a37.79,37.79,0,0,0,6.17-3.67c3.9-2.72,9.58-3.56,9.92-.73s1.1,11.3-7,11.93a70.57,70.57,0,0,1-13.05,0Z"/><path class="cls-96" d="M306.86,286.19a1.73,1.73,0,0,0-1-1.38,1.41,1.41,0,0,1,.06.22c.34,2.82,1.1,11.3-7,11.93-4.78.37-8.49.91-10.74,1.28a79.34,79.34,0,0,0,11.68-.12C308,297.49,307.2,289,306.86,286.19Z"/><path class="cls-97" d="M519.79,373.14c0,4.17-69,7.56-154.07,7.56s-154.07-3.39-154.07-7.56,69-7.56,154.07-7.56S519.79,369,519.79,373.14Z"/><path class="cls-98" d="M172.74,219.26H139.9a2.14,2.14,0,0,1,0-4.28h32.84a12.15,12.15,0,0,0,12.13-12.14V186.43A16.44,16.44,0,0,1,201.29,170h17.85a2.14,2.14,0,0,1,0,4.28H201.29a12.15,12.15,0,0,0-12.14,12.14v16.41A16.44,16.44,0,0,1,172.74,219.26Z"/><path class="cls-99" d="M353.69,239.6H317.64a16.44,16.44,0,0,1-16.42-16.41V183.93a12.14,12.14,0,0,0-12.13-12.14h-15a2.14,2.14,0,0,1,0-4.28h15a16.44,16.44,0,0,1,16.42,16.42v39.26a12.14,12.14,0,0,0,12.13,12.13h36.05a2.14,2.14,0,0,1,0,4.28Z"/><path class="cls-100" d="M269.37,153.93h-.11a23.4,23.4,0,0,0-45.34,0h-.12a20.51,20.51,0,1,0,0,41h45.57a20.51,20.51,0,0,0,0-41Z"/><path class="cls-101" d="M246.63,175a6.64,6.64,0,1,0,6.64,6.65A6.64,6.64,0,0,0,246.63,175Z"/><path class="cls-101" d="M246.63,167.1A14.7,14.7,0,0,0,234.14,174a2,2,0,0,0,1.73,3.14,2.08,2.08,0,0,0,1.72-1,10.72,10.72,0,0,1,18-.12,2.06,2.06,0,0,0,2.84.6,2,2,0,0,0,.57-2.82A14.71,14.71,0,0,0,246.63,167.1Z"/><path class="cls-101" d="M246.63,160a22,22,0,0,0-16.29,7.31,2,2,0,0,0,.15,2.87,2,2,0,0,0,1.36.52,2.08,2.08,0,0,0,1.52-.67,17.76,17.76,0,0,1,26.45-.09,2.07,2.07,0,0,0,2.89.12,2,2,0,0,0,.11-2.89A21.73,21.73,0,0,0,246.63,160Z"/><path class="cls-101" d="M266.9,160.43a29.66,29.66,0,0,0-40.64.09,2.06,2.06,0,0,0-.1,2.88,2.08,2.08,0,0,0,1.51.65,2.12,2.12,0,0,0,1.4-.55,25.58,25.58,0,0,1,35-.1,2.06,2.06,0,0,0,2.89-.1A2,2,0,0,0,266.9,160.43Z"/><path class="cls-102" d="M174.52,369.61c0,4.12-17.43,7.47-39,7.47s-39-3.35-39-7.47,17.44-7.48,39-7.48S174.52,365.48,174.52,369.61Z"/><path class="cls-103" d="M109.9,363.21c0,2.43-17.44,4.4-39,4.4s-39-2-39-4.4,17.45-4.4,39-4.4S109.9,360.78,109.9,363.21Z"/><path class="cls-104" d="M316.14,410.28c0,2.43-34.91,4.4-78,4.4s-78-2-78-4.4,34.9-4.4,78-4.4S316.14,407.85,316.14,410.28Z"/><path class="cls-105" d="M82.47,336.71a34,34,0,0,0,.68,4.8c.17.79.37,1.56.57,2.29s.43,1.47.66,2.19a68.09,68.09,0,0,0,3.1,8,57.79,57.79,0,0,0,3,5.61,16.73,16.73,0,0,0,1.42,2.06s0-.91.25-2.43.46-3.65.73-6.15.52-5.36.62-8.33c0-.75,0-1.49,0-2.25l0-2.21c0-1.44-.07-2.85-.15-4.24-.69-11.09-.81-15.69-3.47-17.13-1.32-.73-3.42.33-5.07,3.39S82.05,330.3,82.47,336.71Z"/><path class="cls-106" d="M82.39,333.63a17.13,17.13,0,0,0,3.93,2.67c-.73-8.7.16-14,1.23-17.19a2.62,2.62,0,0,1,1.82-.41,27.76,27.76,0,0,0-1.69,9.37,15.21,15.21,0,0,1,4.73-3.77c.07.53.15,1.09.21,1.71-2.21,1.28-4.5,3.2-5,5.78a88.31,88.31,0,0,0,.9,10c0,.12,0,.23,0,.35a14,14,0,0,1,4.87-2.36c0,.17,0,.35,0,.52l0,1.15a10,10,0,0,0-4.61,2.64c1.14,7.53,2.21,12.7,3.09,16.22-.1.87-.12,1.35-.12,1.36a16.73,16.73,0,0,1-1.42-2.06l-.46-.78c-.9-3.87-1.93-9.28-3-16.81-.19-1.35-.36-2.62-.48-3.84a19.18,19.18,0,0,1-4.08-2.4C82.39,335,82.38,334.31,82.39,333.63Z"/><path class="cls-107" d="M74.1,342.62a27.58,27.58,0,0,0,4.25,9.17c.24.34.49.68.74,1l.71.86c.47.56,1,1.12,1.43,1.64.94,1.07,1.89,2.06,2.79,3a58.43,58.43,0,0,0,4.69,4.25,12.11,12.11,0,0,0,2.05,1.41,20.12,20.12,0,0,1-.61-2.33c-.34-1.49-.8-3.58-1.39-6-.3-1.21-.63-2.52-1-3.87l-.6-2-.32-1-.27-.94c-.7-2.54-1.27-5.17-1.91-7.72-1.25-5.13-2-9.12-3-11.84S79.48,324,78,323.77s-3.06,1.24-4,4.36S72.51,336.16,74.1,342.62Z"/><path class="cls-106" d="M77.69,335a71.18,71.18,0,0,1-1.56-10.62,2.56,2.56,0,0,1,1.6-.62,73.71,73.71,0,0,0,2.92,16.55,14,14,0,0,0,3.33-3.2c.14.64.3,1.28.46,2a14.32,14.32,0,0,1-3.31,2.83,61.63,61.63,0,0,0,4.06,10.13,13.57,13.57,0,0,0,2-2.38h0l.57,1.94A12.56,12.56,0,0,1,86,353.49a44.44,44.44,0,0,0,3.63,5.67c.1.38.17.73.25,1.07L89,361a46.18,46.18,0,0,1-6.88-11.64H82a31.26,31.26,0,0,1-5.47-.48c-.31-.59-.61-1.19-.88-1.8a29.93,29.93,0,0,0,5.81.68,62.76,62.76,0,0,1-2.31-6.84c-.41-1.47-.76-2.83-1.07-4.13a24.77,24.77,0,0,1-5-1.72c0-.62,0-1.21,0-1.78A23.29,23.29,0,0,0,77.69,335Z"/><path class="cls-108" d="M97.18,340.78c-.31,2.3-.5,4.67-.77,7a46.65,46.65,0,0,1-1.17,6.49,29,29,0,0,1-2.79,6.84,14.73,14.73,0,0,0,2.15-.68,19.11,19.11,0,0,0,5.13-3.08,23,23,0,0,0,5.34-6.51,24.23,24.23,0,0,0,2.89-8.57c.76-5.88-.13-10.17-1.32-12.84s-2.85-3.8-4.32-3.52-2.58,1.68-3.36,4.18S97.77,336.15,97.18,340.78Z"/><path class="cls-106" d="M94.6,360.39a14.73,14.73,0,0,1-2.15.68l.49-.91c1.06-.37,3.79-2,6.45-9.47a17,17,0,0,1-3-3.17c.09-.83.19-1.68.28-2.53a16,16,0,0,0,3.22,4.06c.49-1.53,1-3.28,1.44-5.27,2-8.68,1.74-14.4,1-17.92a2.64,2.64,0,0,1,1.71.35,38.25,38.25,0,0,1-.11,12.5,25.73,25.73,0,0,0,4.14-3.18c.06.65.1,1.34.11,2.06a27.47,27.47,0,0,1-4.59,3.18c-.2,1.07-.43,2.19-.71,3.37-2,8.69-4.46,13.12-6.48,15.38A16.28,16.28,0,0,1,94.6,360.39Z"/><path class="cls-109" d="M90.73,342.53c0,1,.1,2,.19,2.93l.13,1.43.11,1.64c.19,2.2.45,4.35.69,6.27.5,3.82.85,6.73.84,6.74a27.79,27.79,0,0,0,4.46-5.48,34,34,0,0,0,3.09-6.13,18.19,18.19,0,0,0,.61-1.76,20.37,20.37,0,0,0,.47-2,19.13,19.13,0,0,0,.28-4c-.25-5.24-1.72-8.74-3.25-10.84s-3.24-2.77-4.66-2.28-2.36,1.89-2.79,4.16S90.55,338.6,90.73,342.53Z"/><path class="cls-106" d="M90.76,343.11a5.63,5.63,0,0,1,0-.58c0-.63-.06-1.23-.09-1.82a20.38,20.38,0,0,0,4.55,3.77,71.84,71.84,0,0,0-1-15.62,3,3,0,0,1,1.68.27,71.84,71.84,0,0,1,1,10.38,23.47,23.47,0,0,0,4-2.81c.15.55.28,1.13.39,1.75a21.31,21.31,0,0,1-4.33,2.84c0,1.73-.07,3.59-.2,5.53-.13,1.68-.27,3.25-.44,4.71a22.36,22.36,0,0,0,4.23-2.17,5.54,5.54,0,0,1-.21.57c-.24.65-.51,1.28-.79,1.88A20.83,20.83,0,0,1,96,353.3c-.27,2.11-.57,4-.87,5.54a27.09,27.09,0,0,1-2.09,2.36,104.55,104.55,0,0,0,2-14.49c0-.14,0-.29,0-.44A22.29,22.29,0,0,1,90.76,343.11Z"/><path class="cls-110" d="M104.69,363.72h-21a1.81,1.81,0,0,1,0-3.61h21a1.81,1.81,0,0,1,0,3.61Z"/><path class="cls-110" d="M77.13,363.72H68.88a1.81,1.81,0,1,1,0-3.61h8.25a1.81,1.81,0,0,1,0,3.61Z"/><path class="cls-110" d="M62.87,363.72H61a1.81,1.81,0,0,1,0-3.61h1.92a1.81,1.81,0,1,1,0,3.61Z"/><path class="cls-111" d="M289.33,409.62c9.25-10,11.79-27.39,7.53-30.94-6.63-5.51-12,2.67-12,2.67s-4.17-14.15-14.79-10.88S262.87,385,262.87,385s-11.06-8.13-14.61,5.32c-2,7.48,4.29,14.49,10.26,19.26Z"/><path class="cls-112" d="M283,409.62c-6.42-6.93-8.17-19-5.23-21.46,4.6-3.81,8.32,1.86,8.32,1.86s2.89-9.81,10.26-7.54,5,10.09,5,10.09,7.66-5.63,10.12,3.7c1.37,5.18-3,10-7.11,13.35Z"/><path class="cls-113" d="M295.16,409.62c-3.65-3.95-4.65-10.82-3-12.21,2.61-2.18,4.73,1,4.73,1s1.64-5.58,5.84-4.29,2.84,5.74,2.84,5.74,4.36-3.2,5.77,2.11c.77,3-1.7,5.72-4.05,7.6Z"/><path class="cls-114" d="M278.69,409.62c4.14-4.46,5.27-12.24,3.37-13.82-3-2.47-5.36,1.19-5.36,1.19s-1.86-6.32-6.6-4.86-3.22,6.5-3.22,6.5-4.94-3.62-6.53,2.39c-.88,3.33,1.92,6.46,4.58,8.6Z"/><path class="cls-115" d="M195.08,409.62c-5-5.38-6.34-14.75-4.05-16.65,3.56-3,6.45,1.44,6.45,1.44s2.24-7.61,8-5.85,3.88,7.83,3.88,7.83,5.94-4.37,7.85,2.87c1.07,4-2.31,7.79-5.51,10.36Z"/><path class="cls-116" d="M198.48,409.62c3.45-3.73,4.4-10.22,2.81-11.54-2.47-2.06-4.47,1-4.47,1s-1.55-5.28-5.52-4.06-2.68,5.43-2.68,5.43-4.12-3-5.45,2c-.74,2.8,1.6,5.41,3.82,7.19Z"/><path class="cls-117" d="M191.94,409.62c2-2.13,2.5-5.82,1.6-6.58-1.4-1.16-2.54.57-2.54.57s-.89-3-3.14-2.3-1.53,3.09-1.53,3.09-2.35-1.73-3.1,1.13c-.42,1.59.91,3.07,2.17,4.09Z"/><path class="cls-118" d="M200.81,409.62c-2.23-2.41-2.84-6.59-1.82-7.44,1.6-1.32,2.88.64,2.88.64s1-3.4,3.56-2.61,1.73,3.49,1.73,3.49,2.65-1.94,3.51,1.29c.48,1.8-1,3.48-2.46,4.63Z"/><path class="cls-110" d="M314.74,411H240.38a1.12,1.12,0,1,1,0-2.23h74.36a1.12,1.12,0,1,1,0,2.23Z"/><path class="cls-110" d="M237.2,411h-5a1.12,1.12,0,0,1,0-2.23h5a1.12,1.12,0,0,1,0,2.23Z"/><path class="cls-110" d="M227.81,411H226a1.12,1.12,0,1,1,0-2.23h1.81a1.12,1.12,0,1,1,0,2.23Z"/><path class="cls-110" d="M216.78,411H184.37a1.12,1.12,0,0,1,0-2.23h32.41a1.12,1.12,0,1,1,0,2.23Z"/><path class="cls-110" d="M181.45,411h-4.62a1.12,1.12,0,1,1,0-2.23h4.62a1.12,1.12,0,1,1,0,2.23Z"/><path class="cls-110" d="M174.05,411h-1.32a1.12,1.12,0,0,1,0-2.23h1.32a1.12,1.12,0,1,1,0,2.23Z"/></g></g></g></svg>